<svg width="14" height="14" viewBox="0 0 14 14" fill="none" xmlns="http://www.w3.org/2000/svg">
<path d="M13.5 10.5V2.5C13.5 2.22386 13.2761 2 13 2H1C0.734784 2 0.5 2.23478 0.5 2.5V10.5C0.5 10.7652 0.734784 11 1 11H13C13.2652 11 13.5 10.7652 13.5 10.5Z" stroke="black" stroke-linecap="round" stroke-linejoin="round"/>
<path d="M6 11L5 13.5" stroke="black" stroke-linecap="round" stroke-linejoin="round"/>
<path d="M8 11L9 13.5" stroke="black" stroke-linecap="round" stroke-linejoin="round"/>
<path d="M4 13.5H10" stroke="black" stroke-linecap="round" stroke-linejoin="round"/>
<path d="M4.55682 7.57129C5.03316 8.05576 5.87447 8.49986 7 8.49986C8.12553 8.49986 8.96684 8.05576 9.44318 7.57129" stroke="black" stroke-linecap="round" stroke-linejoin="round"/>
<path d="M5.25022 5.00044C5.11203 5.00044 5 4.88841 5 4.75022C5 4.61203 5.11203 4.5 5.25022 4.5" stroke="black" stroke-linecap="round" stroke-linejoin="round"/>
<path d="M5.24988 5.00044C5.38807 5.00044 5.5001 4.88841 5.5001 4.75022C5.5001 4.61203 5.38807 4.5 5.24988 4.5" stroke="black" stroke-linecap="round" stroke-linejoin="round"/>
<path d="M8.75 5C8.61193 5 8.5 4.88807 8.5 4.75C8.5 4.61193 8.61193 4.5 8.75 4.5" stroke="black" stroke-linecap="round" stroke-linejoin="round"/>
<path d="M8.74963 5C8.88771 5 8.99964 4.88807 8.99964 4.75C8.99964 4.61193 8.88771 4.5 8.74963 4.5" stroke="black" stroke-linecap="round" stroke-linejoin="round"/>
</svg>
