<svg width="14" height="14" viewBox="0 0 14 14" fill="none" xmlns="http://www.w3.org/2000/svg">
<g clip-path="url(#clip0_1222_38098)">
<path d="M13.1801 13.4999C12.7602 12.1907 11.9355 11.0487 10.8249 10.2385C9.71416 9.42828 8.37487 8.9917 7.00007 8.9917C5.62526 8.9917 4.28597 9.42828 3.17528 10.2385C2.0646 11.0487 1.23989 12.1907 0.820068 13.4999H13.1801Z" stroke="black" stroke-linecap="round" stroke-linejoin="round"/>
<path d="M7 9C9.3373 9 11.2321 7.10524 11.2321 4.76794C11.2321 2.43064 9.3373 0.535889 7 0.535889C4.6627 0.535889 2.76794 2.43064 2.76794 4.76794C2.76794 7.10524 4.6627 9 7 9Z" stroke="black" stroke-linecap="round" stroke-linejoin="round"/>
<path d="M8.38196 6.56006C8.38196 6.56006 8.03081 7.251 7.00006 7.251C5.96931 7.251 5.61816 6.56006 5.61816 6.56006" stroke="black" stroke-linecap="round" stroke-linejoin="round"/>
<path d="M11.1554 3.96219C11.1459 3.96225 11.1365 3.96228 11.1271 3.96228C9.89693 3.96228 8.75613 3.85376 8 3C7.24388 3.85378 6.17581 3.96231 4.94566 3.96231C4.23132 3.96231 3.55936 3.78082 2.97339 3.46144C3.52393 1.76353 5.11856 0.535889 6.99993 0.535889C9.0617 0.535889 10.7791 2.01026 11.1554 3.96219Z" stroke="black" stroke-linecap="round" stroke-linejoin="round"/>
<circle cx="6" cy="4.5" r="0.5" fill="black"/>
<circle cx="8" cy="4.5" r="0.5" fill="black"/>
</g>
<defs>
<clipPath id="clip0_1222_38098">
<rect width="14" height="14" fill="white"/>
</clipPath>
</defs>
</svg>
