<svg width="45" height="38" viewBox="0 0 45 38" fill="none" xmlns="http://www.w3.org/2000/svg">
<circle cx="16" cy="32" r="4.5" stroke="black" stroke-width="3"/>
<circle cx="16" cy="19" r="4.5" stroke="black" stroke-width="3"/>
<circle cx="29" cy="19" r="4.5" stroke="black" stroke-width="3"/>
<path d="M25 32C25 32 25 32 34.2581 32C39 32 39 27.6382 39 23.63C39 5.00003 39 5 39 5" stroke="black" stroke-width="3" stroke-linecap="round"/>
<path d="M7 17.4869C7.82843 17.4869 8.5 18.1585 8.5 18.9869C8.5 19.8153 7.82843 20.4869 7 20.4869V17.4869ZM0.5 2V0.5H3.5V2H0.5ZM0.5 16.7849C0.5 16.762 0.5 16.7392 0.5 16.7163C0.5 16.6935 0.5 16.6707 0.5 16.6479C0.5 16.6252 0.5 16.6025 0.5 16.5798C0.5 16.5571 0.5 16.5344 0.5 16.5118C0.5 16.4892 0.5 16.4666 0.5 16.444C0.5 16.4214 0.5 16.3989 0.5 16.3764C0.5 16.3539 0.5 16.3314 0.5 16.309C0.5 16.2866 0.5 16.2642 0.5 16.2418C0.5 16.2194 0.5 16.1971 0.5 16.1748C0.5 16.1525 0.5 16.1302 0.5 16.108C0.5 16.0858 0.5 16.0636 0.5 16.0414C0.5 16.0192 0.5 15.9971 0.5 15.975C0.5 15.9529 0.5 15.9308 0.5 15.9088C0.5 15.8867 0.5 15.8647 0.5 15.8427C0.5 15.8208 0.5 15.7988 0.5 15.7769C0.5 15.755 0.5 15.7331 0.5 15.7113C0.5 15.6894 0.5 15.6676 0.5 15.6458C0.5 15.624 0.5 15.6023 0.5 15.5806C0.5 15.5589 0.5 15.5372 0.5 15.5155C0.5 15.4939 0.5 15.4722 0.5 15.4507C0.5 15.4291 0.5 15.4075 0.5 15.386C0.5 15.3645 0.5 15.343 0.5 15.3215C0.5 15.3001 0.5 15.2786 0.5 15.2572C0.5 15.2358 0.5 15.2145 0.5 15.1931C0.5 15.1718 0.5 15.1505 0.5 15.1292C0.5 15.108 0.5 15.0867 0.5 15.0655C0.5 15.0443 0.5 15.0232 0.5 15.002C0.5 14.9809 0.5 14.9598 0.5 14.9387C0.5 14.9176 0.5 14.8966 0.5 14.8756C0.5 14.8546 0.5 14.8336 0.5 14.8126C0.5 14.7917 0.5 14.7708 0.5 14.7499C0.5 14.729 0.5 14.7081 0.5 14.6873C0.5 14.6665 0.5 14.6457 0.5 14.6249C0.5 14.6042 0.5 14.5835 0.5 14.5628C0.5 14.5421 0.5 14.5214 0.5 14.5008C0.5 14.4801 0.5 14.4595 0.5 14.439C0.5 14.4184 0.5 14.3979 0.5 14.3774C0.5 14.3569 0.5 14.3364 0.5 14.3159C0.5 14.2955 0.5 14.2751 0.5 14.2547C0.5 14.2343 0.5 14.214 0.5 14.1937C0.5 14.1733 0.5 14.1531 0.5 14.1328C0.5 14.1125 0.5 14.0923 0.5 14.0721C0.5 14.0519 0.5 14.0318 0.5 14.0116C0.5 13.9915 0.5 13.9714 0.5 13.9514C0.5 13.9313 0.5 13.9112 0.5 13.8912C0.5 13.8712 0.5 13.8513 0.5 13.8313C0.5 13.8114 0.5 13.7915 0.5 13.7716C0.5 13.7517 0.5 13.7319 0.5 13.712C0.5 13.6922 0.5 13.6724 0.5 13.6527C0.5 13.6329 0.5 13.6132 0.5 13.5935C0.5 13.5738 0.5 13.5541 0.5 13.5345C0.5 13.5149 0.5 13.4953 0.5 13.4757C0.5 13.4561 0.5 13.4366 0.5 13.4171C0.5 13.3976 0.5 13.3781 0.5 13.3587C0.5 13.3392 0.5 13.3198 0.5 13.3004C0.5 13.281 0.5 13.2617 0.5 13.2423C0.5 13.223 0.5 13.2037 0.5 13.1845C0.5 13.1652 0.5 13.146 0.5 13.1268C0.5 13.1076 0.5 13.0884 0.5 13.0692C0.5 13.0501 0.5 13.031 0.5 13.0119C0.5 12.9928 0.5 12.9738 0.5 12.9548C0.5 12.9358 0.5 12.9168 0.5 12.8978C0.5 12.8788 0.5 12.8599 0.5 12.841C0.5 12.8221 0.5 12.8033 0.5 12.7844C0.5 12.7656 0.5 12.7468 0.5 12.728C0.5 12.7092 0.5 12.6905 0.5 12.6718C0.5 12.6531 0.5 12.6344 0.5 12.6157C0.5 12.5971 0.5 12.5784 0.5 12.5598C0.5 12.5413 0.5 12.5227 0.5 12.5042C0.5 12.4856 0.5 12.4671 0.5 12.4486C0.5 12.4302 0.5 12.4117 0.5 12.3933C0.5 12.3749 0.5 12.3565 0.5 12.3382C0.5 12.3198 0.5 12.3015 0.5 12.2832C0.5 12.2649 0.5 12.2466 0.5 12.2284C0.5 12.2102 0.5 12.192 0.5 12.1738C0.5 12.1556 0.5 12.1375 0.5 12.1194C0.5 12.1013 0.5 12.0832 0.5 12.0651C0.5 12.0471 0.5 12.029 0.5 12.011C0.5 11.993 0.5 11.9751 0.5 11.9571C0.5 11.9392 0.5 11.9213 0.5 11.9034C0.5 11.8856 0.5 11.8677 0.5 11.8499C0.5 11.8321 0.5 11.8143 0.5 11.7965C0.5 11.7788 0.5 11.7611 0.5 11.7434C0.5 11.7257 0.5 11.708 0.5 11.6904C0.5 11.6727 0.5 11.6551 0.5 11.6375C0.5 11.6199 0.5 11.6024 0.5 11.5849C0.5 11.5674 0.5 11.5499 0.5 11.5324C0.5 11.5149 0.5 11.4975 0.5 11.4801C0.5 11.4627 0.5 11.4453 0.5 11.428C0.5 11.4106 0.5 11.3933 0.5 11.376C0.5 11.3588 0.5 11.3415 0.5 11.3243C0.5 11.307 0.5 11.2898 0.5 11.2727C0.5 11.2555 0.5 11.2384 0.5 11.2213C0.5 11.2041 0.5 11.1871 0.5 11.17C0.5 11.153 0.5 11.1359 0.5 11.1189C0.5 11.1019 0.5 11.085 0.5 11.068C0.5 11.0511 0.5 11.0342 0.5 11.0173C0.5 11.0004 0.5 10.9836 0.5 10.9668C0.5 10.95 0.5 10.9332 0.5 10.9164C0.5 10.8996 0.5 10.8829 0.5 10.8662C0.5 10.8495 0.5 10.8328 0.5 10.8162C0.5 10.7995 0.5 10.7829 0.5 10.7663C0.5 10.7497 0.5 10.7332 0.5 10.7166C0.5 10.7001 0.5 10.6836 0.5 10.6671C0.5 10.6507 0.5 10.6342 0.5 10.6178C0.5 10.6014 0.5 10.585 0.5 10.5686C0.5 10.5523 0.5 10.5359 0.5 10.5196C0.5 10.5033 0.5 10.4871 0.5 10.4708C0.5 10.4546 0.5 10.4384 0.5 10.4222C0.5 10.406 0.5 10.3898 0.5 10.3737C0.5 10.3576 0.5 10.3415 0.5 10.3254C0.5 10.3093 0.5 10.2933 0.5 10.2772C0.5 10.2612 0.5 10.2452 0.5 10.2293C0.5 10.2133 0.5 10.1974 0.5 10.1815C0.5 10.1656 0.5 10.1497 0.5 10.1338C0.5 10.118 0.5 10.1022 0.5 10.0864C0.5 10.0706 0.5 10.0548 0.5 10.0391C0.5 10.0234 0.5 10.0077 0.5 9.99197C0.5 9.97629 0.5 9.96064 0.5 9.94502C0.5 9.9294 0.5 9.9138 0.5 9.89823C0.5 9.88267 0.5 9.86713 0.5 9.85162C0.5 9.83611 0.5 9.82062 0.5 9.80517C0.5 9.78971 0.5 9.77429 0.5 9.75889C0.5 9.74349 0.5 9.72812 0.5 9.71277C0.5 9.69743 0.5 9.68212 0.5 9.66683C0.5 9.65154 0.5 9.63628 0.5 9.62105C0.5 9.60582 0.5 9.59061 0.5 9.57544C0.5 9.56026 0.5 9.54511 0.5 9.52999C0.5 9.51487 0.5 9.49977 0.5 9.48471C0.5 9.46964 0.5 9.45461 0.5 9.43959C0.5 9.42458 0.5 9.4096 0.5 9.39465C0.5 9.37969 0.5 9.36476 0.5 9.34986C0.5 9.33496 0.5 9.32009 0.5 9.30524C0.5 9.2904 0.5 9.27558 0.5 9.26079C0.5 9.246 0.5 9.23124 0.5 9.2165C0.5 9.20177 0.5 9.18706 0.5 9.17238C0.5 9.1577 0.5 9.14304 0.5 9.12842C0.5 9.11379 0.5 9.09919 0.5 9.08462C0.5 9.07005 0.5 9.05551 0.5 9.04099C0.5 9.02647 0.5 9.01198 0.5 8.99752C0.5 8.98306 0.5 8.96862 0.5 8.95421C0.5 8.9398 0.5 8.92542 0.5 8.91107C0.5 8.89672 0.5 8.88239 0.5 8.86809C0.5 8.85379 0.5 8.83952 0.5 8.82527C0.5 8.81102 0.5 8.79681 0.5 8.78261C0.5 8.76842 0.5 8.75426 0.5 8.74012C0.5 8.72598 0.5 8.71187 0.5 8.69779C0.5 8.6837 0.5 8.66965 0.5 8.65562C0.5 8.64159 0.5 8.62758 0.5 8.61361C0.5 8.59963 0.5 8.58568 0.5 8.57176C0.5 8.55783 0.5 8.54394 0.5 8.53007C0.5 8.5162 0.5 8.50236 0.5 8.48854C0.5 8.47472 0.5 8.46093 0.5 8.44717C0.5 8.43341 0.5 8.41967 0.5 8.40596C0.5 8.39225 0.5 8.37857 0.5 8.36492C0.5 8.35126 0.5 8.33763 0.5 8.32403C0.5 8.31042 0.5 8.29685 0.5 8.2833C0.5 8.26975 0.5 8.25622 0.5 8.24273C0.5 8.22923 0.5 8.21576 0.5 8.20231C0.5 8.18887 0.5 8.17545 0.5 8.16206C0.5 8.14867 0.5 8.1353 0.5 8.12196C0.5 8.10862 0.5 8.09531 0.5 8.08202C0.5 8.06874 0.5 8.05548 0.5 8.04224C0.5 8.02901 0.5 8.0158 0.5 8.00262C0.5 7.98944 0.5 7.97628 0.5 7.96316C0.5 7.95003 0.5 7.93692 0.5 7.92385C0.5 7.91077 0.5 7.89772 0.5 7.88469C0.5 7.87167 0.5 7.85867 0.5 7.8457C0.5 7.83273 0.5 7.81978 0.5 7.80686C0.5 7.79394 0.5 7.78104 0.5 7.76817C0.5 7.75531 0.5 7.74246 0.5 7.72965C0.5 7.71683 0.5 7.70404 0.5 7.69127C0.5 7.67851 0.5 7.66577 0.5 7.65306C0.5 7.64034 0.5 7.62765 0.5 7.61499C0.5 7.60233 0.5 7.58969 0.5 7.57708C0.5 7.56447 0.5 7.55189 0.5 7.53933C0.5 7.52677 0.5 7.51424 0.5 7.50173C0.5 7.48922 0.5 7.47674 0.5 7.46429C0.5 7.45183 0.5 7.4394 0.5 7.42699C0.5 7.41459 0.5 7.40221 0.5 7.38985C0.5 7.3775 0.5 7.36517 0.5 7.35287C0.5 7.34057 0.5 7.32829 0.5 7.31604C0.5 7.30378 0.5 7.29156 0.5 7.27936C0.5 7.26715 0.5 7.25498 0.5 7.24283C0.5 7.23068 0.5 7.21855 0.5 7.20645C0.5 7.19435 0.5 7.18228 0.5 7.17023C0.5 7.15818 0.5 7.14616 0.5 7.13416C0.5 7.12216 0.5 7.11018 0.5 7.09824C0.5 7.08629 0.5 7.07436 0.5 7.06247C0.5 7.05057 0.5 7.0387 0.5 7.02685C0.5 7.015 0.5 7.00318 0.5 6.99138C0.5 6.97958 0.5 6.96781 0.5 6.95606C0.5 6.94431 0.5 6.93259 0.5 6.92089C0.5 6.9092 0.5 6.89752 0.5 6.88588C0.5 6.87423 0.5 6.86261 0.5 6.85101C0.5 6.83941 0.5 6.82784 0.5 6.81629C0.5 6.80474 0.5 6.79322 0.5 6.78172C0.5 6.77022 0.5 6.75875 0.5 6.7473C0.5 6.73585 0.5 6.72443 0.5 6.71303C0.5 6.70163 0.5 6.69025 0.5 6.6789C0.5 6.66755 0.5 6.65623 0.5 6.64493C0.5 6.63363 0.5 6.62235 0.5 6.6111C0.5 6.59985 0.5 6.58862 0.5 6.57742C0.5 6.56622 0.5 6.55504 0.5 6.54389C0.5 6.53274 0.5 6.52161 0.5 6.5105C0.5 6.4994 0.5 6.48832 0.5 6.47727C0.5 6.46621 0.5 6.45518 0.5 6.44417C0.5 6.43317 0.5 6.42219 0.5 6.41123C0.5 6.40027 0.5 6.38934 0.5 6.37843C0.5 6.36752 0.5 6.35664 0.5 6.34578C0.5 6.33492 0.5 6.32408 0.5 6.31327C0.5 6.30246 0.5 6.29167 0.5 6.28091C0.5 6.27014 0.5 6.2594 0.5 6.24869C0.5 6.23797 0.5 6.22728 0.5 6.21662C0.5 6.20595 0.5 6.19531 0.5 6.18469C0.5 6.17407 0.5 6.16347 0.5 6.1529C0.5 6.14233 0.5 6.13179 0.5 6.12127C0.5 6.11074 0.5 6.10024 0.5 6.08977C0.5 6.0793 0.5 6.06884 0.5 6.05842C0.5 6.04799 0.5 6.03759 0.5 6.02721C0.5 6.01683 0.5 6.00648 0.5 5.99614C0.5 5.98581 0.5 5.97551 0.5 5.96522C0.5 5.95494 0.5 5.94468 0.5 5.93444C0.5 5.92421 0.5 5.91399 0.5 5.90381C0.5 5.89362 0.5 5.88345 0.5 5.87331C0.5 5.86317 0.5 5.85305 0.5 5.84296C0.5 5.83286 0.5 5.82279 0.5 5.81275C0.5 5.8027 0.5 5.79268 0.5 5.78268C0.5 5.77268 0.5 5.7627 0.5 5.75275C0.5 5.74279 0.5 5.73286 0.5 5.72296C0.5 5.71305 0.5 5.70317 0.5 5.69331C0.5 5.68345 0.5 5.67362 0.5 5.6638C0.5 5.65399 0.5 5.6442 0.5 5.63444C0.5 5.62467 0.5 5.61493 0.5 5.60521C0.5 5.59549 0.5 5.58579 0.5 5.57612C0.5 5.56645 0.5 5.5568 0.5 5.54717C0.5 5.53755 0.5 5.52794 0.5 5.51836C0.5 5.50878 0.5 5.49923 0.5 5.48969C0.5 5.48016 0.5 5.47065 0.5 5.46116C0.5 5.45168 0.5 5.44221 0.5 5.43277C0.5 5.42333 0.5 5.41391 0.5 5.40451C0.5 5.39512 0.5 5.38575 0.5 5.3764C0.5 5.36705 0.5 5.35772 0.5 5.34842C0.5 5.33911 0.5 5.32983 0.5 5.32058C0.5 5.31132 0.5 5.30208 0.5 5.29287C0.5 5.28366 0.5 5.27447 0.5 5.2653C0.5 5.25614 0.5 5.24699 0.5 5.23787C0.5 5.22875 0.5 5.21965 0.5 5.21058C0.5 5.2015 0.5 5.19245 0.5 5.18342C0.5 5.17439 0.5 5.16538 0.5 5.1564C0.5 5.14741 0.5 5.13845 0.5 5.12951C0.5 5.12057 0.5 5.11165 0.5 5.10276C0.5 5.09386 0.5 5.08499 0.5 5.07614C0.5 5.06729 0.5 5.05846 0.5 5.04966C0.5 5.04085 0.5 5.03207 0.5 5.02331C0.5 5.01455 0.5 5.00581 0.5 4.9971C0.5 4.98838 0.5 4.97969 0.5 4.97102C0.5 4.96235 0.5 4.9537 0.5 4.94507C0.5 4.93645 0.5 4.92784 0.5 4.91926C0.5 4.91068 0.5 4.90212 0.5 4.89358C0.5 4.88505 0.5 4.87653 0.5 4.86804C0.5 4.85955 0.5 4.85108 0.5 4.84263C0.5 4.83418 0.5 4.82575 0.5 4.81735C0.5 4.80894 0.5 4.80056 0.5 4.7922C0.5 4.78384 0.5 4.7755 0.5 4.76719C0.5 4.75887 0.5 4.75058 0.5 4.7423C0.5 4.73403 0.5 4.72578 0.5 4.71755C0.5 4.70932 0.5 4.70112 0.5 4.69293C0.5 4.68475 0.5 4.67659 0.5 4.66844C0.5 4.6603 0.5 4.65218 0.5 4.64409C0.5 4.63599 0.5 4.62791 0.5 4.61986C0.5 4.61181 0.5 4.60377 0.5 4.59576C0.5 4.58775 0.5 4.57976 0.5 4.5718C0.5 4.56383 0.5 4.55588 0.5 4.54796C0.5 4.54004 0.5 4.53213 0.5 4.52425C0.5 4.51637 0.5 4.50851 0.5 4.50067C0.5 4.49284 0.5 4.48502 0.5 4.47723C0.5 4.46943 0.5 4.46166 0.5 4.45391C0.5 4.44615 0.5 4.43842 0.5 4.43072C0.5 4.42301 0.5 4.41532 0.5 4.40765C0.5 4.39999 0.5 4.39234 0.5 4.38472C0.5 4.37709 0.5 4.36949 0.5 4.36191C0.5 4.35433 0.5 4.34677 0.5 4.33923C0.5 4.33169 0.5 4.32418 0.5 4.31668C0.5 4.30919 0.5 4.30171 0.5 4.29426C0.5 4.2868 0.5 4.27937 0.5 4.27196C0.5 4.26455 0.5 4.25716 0.5 4.24979C0.5 4.24242 0.5 4.23507 0.5 4.22774C0.5 4.22042 0.5 4.21311 0.5 4.20583C0.5 4.19854 0.5 4.19128 0.5 4.18403C0.5 4.17679 0.5 4.16957 0.5 4.16237C0.5 4.15516 0.5 4.14798 0.5 4.14082C0.5 4.13366 0.5 4.12653 0.5 4.11941C0.5 4.11229 0.5 4.10519 0.5 4.09812C0.5 4.09104 0.5 4.08398 0.5 4.07695C0.5 4.06991 0.5 4.0629 0.5 4.05591C0.5 4.04891 0.5 4.04194 0.5 4.03499C0.5 4.02804 0.5 4.0211 0.5 4.01419C0.5 4.00728 0.5 4.00039 0.5 3.99352C0.5 3.98665 0.5 3.9798 0.5 3.97298C0.5 3.96615 0.5 3.95934 0.5 3.95255C0.5 3.94576 0.5 3.939 0.5 3.93225C0.5 3.9255 0.5 3.91878 0.5 3.91207C0.5 3.90537 0.5 3.89868 0.5 3.89201C0.5 3.88535 0.5 3.8787 0.5 3.87208C0.5 3.86546 0.5 3.85885 0.5 3.85227C0.5 3.84568 0.5 3.83912 0.5 3.83258C0.5 3.82603 0.5 3.81951 0.5 3.81301C0.5 3.8065 0.5 3.80002 0.5 3.79356C0.5 3.7871 0.5 3.78065 0.5 3.77423C0.5 3.76781 0.5 3.76141 0.5 3.75503C0.5 3.74864 0.5 3.74228 0.5 3.73594C0.5 3.7296 0.5 3.72327 0.5 3.71697C0.5 3.71067 0.5 3.70439 0.5 3.69813C0.5 3.69186 0.5 3.68562 0.5 3.6794C0.5 3.67318 0.5 3.66697 0.5 3.66079C0.5 3.65461 0.5 3.64845 0.5 3.6423C0.5 3.63616 0.5 3.63004 0.5 3.62393C0.5 3.61783 0.5 3.61175 0.5 3.60568C0.5 3.59962 0.5 3.59358 0.5 3.58755C0.5 3.58153 0.5 3.57552 0.5 3.56954C0.5 3.56355 0.5 3.55759 0.5 3.55164C0.5 3.5457 0.5 3.53977 0.5 3.53386C0.5 3.52796 0.5 3.52207 0.5 3.5162C0.5 3.51033 0.5 3.50449 0.5 3.49866C0.5 3.49283 0.5 3.48702 0.5 3.48123C0.5 3.47544 0.5 3.46967 0.5 3.46392C0.5 3.45817 0.5 3.45244 0.5 3.44673C0.5 3.44101 0.5 3.43532 0.5 3.42965C0.5 3.42397 0.5 3.41832 0.5 3.41269C0.5 3.40705 0.5 3.40143 0.5 3.39584C0.5 3.39024 0.5 3.38467 0.5 3.37911C0.5 3.37355 0.5 3.36801 0.5 3.36249C0.5 3.35697 0.5 3.35147 0.5 3.34599C0.5 3.34051 0.5 3.33505 0.5 3.3296C0.5 3.32416 0.5 3.31874 0.5 3.31333C0.5 3.30793 0.5 3.30254 0.5 3.29717C0.5 3.29181 0.5 3.28646 0.5 3.28113C0.5 3.2758 0.5 3.27049 0.5 3.2652C0.5 3.25991 0.5 3.25464 0.5 3.24938C0.5 3.24413 0.5 3.23889 0.5 3.23368C0.5 3.22846 0.5 3.22327 0.5 3.21809C0.5 3.21291 0.5 3.20775 0.5 3.20261C0.5 3.19747 0.5 3.19235 0.5 3.18724C0.5 3.18214 0.5 3.17705 0.5 3.17199C0.5 3.16692 0.5 3.16187 0.5 3.15685C0.5 3.15182 0.5 3.14681 0.5 3.14182C0.5 3.13682 0.5 3.13185 0.5 3.1269C0.5 3.12194 0.5 3.11701 0.5 3.11209C0.5 3.10717 0.5 3.10227 0.5 3.09739C0.5 3.09251 0.5 3.08765 0.5 3.08281C0.5 3.07796 0.5 3.07314 0.5 3.06833C0.5 3.06352 0.5 3.05873 0.5 3.05396C0.5 3.04919 0.5 3.04444 0.5 3.03971C0.5 3.03497 0.5 3.03026 0.5 3.02556C0.5 3.02086 0.5 3.01618 0.5 3.01152C0.5 3.00686 0.5 3.00222 0.5 2.9976C0.5 2.99297 0.5 2.98837 0.5 2.98378C0.5 2.97919 0.5 2.97462 0.5 2.97007C0.5 2.96551 0.5 2.96098 0.5 2.95647C0.5 2.95195 0.5 2.94745 0.5 2.94297C0.5 2.93849 0.5 2.93403 0.5 2.92959C0.5 2.92514 0.5 2.92072 0.5 2.91631C0.5 2.9119 0.5 2.90751 0.5 2.90314C0.5 2.89876 0.5 2.89441 0.5 2.89007C0.5 2.88574 0.5 2.88142 0.5 2.87712C0.5 2.87281 0.5 2.86853 0.5 2.86427C0.5 2.86 0.5 2.85575 0.5 2.85152C0.5 2.84729 0.5 2.84308 0.5 2.83888C0.5 2.83469 0.5 2.83051 0.5 2.82635C0.5 2.82219 0.5 2.81805 0.5 2.81393C0.5 2.8098 0.5 2.80569 0.5 2.8016C0.5 2.79752 0.5 2.79344 0.5 2.78939C0.5 2.78533 0.5 2.7813 0.5 2.77728C0.5 2.77326 0.5 2.76926 0.5 2.76527C0.5 2.76129 0.5 2.75732 0.5 2.75337C0.5 2.74942 0.5 2.74549 0.5 2.74157C0.5 2.73766 0.5 2.73376 0.5 2.72988C0.5 2.726 0.5 2.72213 0.5 2.71829C0.5 2.71444 0.5 2.71061 0.5 2.7068C0.5 2.70299 0.5 2.6992 0.5 2.69542C0.5 2.69164 0.5 2.68788 0.5 2.68414C0.5 2.68039 0.5 2.67667 0.5 2.67296C0.5 2.66925 0.5 2.66556 0.5 2.66188C0.5 2.65821 0.5 2.65455 0.5 2.65091C0.5 2.64727 0.5 2.64364 0.5 2.64004C0.5 2.63643 0.5 2.63284 0.5 2.62927C0.5 2.62569 0.5 2.62214 0.5 2.6186C0.5 2.61506 0.5 2.61154 0.5 2.60803C0.5 2.60453 0.5 2.60104 0.5 2.59756C0.5 2.59409 0.5 2.59064 0.5 2.5872C0.5 2.58376 0.5 2.58034 0.5 2.57693C0.5 2.57353 0.5 2.57014 0.5 2.56677C0.5 2.5634 0.5 2.56004 0.5 2.5567C0.5 2.55336 0.5 2.55004 0.5 2.54674C0.5 2.54343 0.5 2.54014 0.5 2.53687C0.5 2.5336 0.5 2.53034 0.5 2.5271C0.5 2.52386 0.5 2.52064 0.5 2.51743C0.5 2.51423 0.5 2.51104 0.5 2.50786C0.5 2.50469 0.5 2.50153 0.5 2.49839C0.5 2.49525 0.5 2.49213 0.5 2.48902C0.5 2.48591 0.5 2.48282 0.5 2.47974C0.5 2.47667 0.5 2.47361 0.5 2.47056C0.5 2.46752 0.5 2.46449 0.5 2.46148C0.5 2.45847 0.5 2.45548 0.5 2.4525C0.5 2.44952 0.5 2.44656 0.5 2.44361C0.5 2.44067 0.5 2.43774 0.5 2.43482C0.5 2.43191 0.5 2.42901 0.5 2.42613C0.5 2.42325 0.5 2.42038 0.5 2.41753C0.5 2.41468 0.5 2.41185 0.5 2.40903C0.5 2.40621 0.5 2.40341 0.5 2.40062C0.5 2.39784 0.5 2.39507 0.5 2.39231C0.5 2.38956 0.5 2.38682 0.5 2.3841C0.5 2.38138 0.5 2.37867 0.5 2.37598C0.5 2.37329 0.5 2.37061 0.5 2.36795C0.5 2.36529 0.5 2.36265 0.5 2.36002C0.5 2.35739 0.5 2.35478 0.5 2.35218C0.5 2.34959 0.5 2.347 0.5 2.34444C0.5 2.34187 0.5 2.33932 0.5 2.33679C0.5 2.33425 0.5 2.33174 0.5 2.32923C0.5 2.32673 0.5 2.32424 0.5 2.32177C0.5 2.3193 0.5 2.31684 0.5 2.3144C0.5 2.31196 0.5 2.30953 0.5 2.30712C0.5 2.30471 0.5 2.30231 0.5 2.29994C0.5 2.29756 0.5 2.29519 0.5 2.29284C0.5 2.29049 0.5 2.28816 0.5 2.28584C0.5 2.28352 0.5 2.28122 0.5 2.27893C0.5 2.27664 0.5 2.27437 0.5 2.27211C0.5 2.26985 0.5 2.26761 0.5 2.26538C0.5 2.26316 0.5 2.26094 0.5 2.25875C0.5 2.25655 0.5 2.25437 0.5 2.2522C0.5 2.25004 0.5 2.24788 0.5 2.24575C0.5 2.24361 0.5 2.24149 0.5 2.23938C0.5 2.23727 0.5 2.23518 0.5 2.23311C0.5 2.23103 0.5 2.22897 0.5 2.22692C0.5 2.22487 0.5 2.22284 0.5 2.22082C0.5 2.21881 0.5 2.2168 0.5 2.21482C0.5 2.21283 0.5 2.21086 0.5 2.2089C0.5 2.20694 0.5 2.205 0.5 2.20307C0.5 2.20114 0.5 2.19923 0.5 2.19733C0.5 2.19543 0.5 2.19354 0.5 2.19167C0.5 2.1898 0.5 2.18795 0.5 2.18611C0.5 2.18427 0.5 2.18244 0.5 2.18063C0.5 2.17882 0.5 2.17702 0.5 2.17524C0.5 2.17346 0.5 2.17169 0.5 2.16994C0.5 2.16818 0.5 2.16644 0.5 2.16472C0.5 2.163 0.5 2.16129 0.5 2.15959C0.5 2.15789 0.5 2.15621 0.5 2.15455C0.5 2.15288 0.5 2.15123 0.5 2.14959C0.5 2.14795 0.5 2.14633 0.5 2.14472C0.5 2.14311 0.5 2.14151 0.5 2.13993C0.5 2.13835 0.5 2.13678 0.5 2.13523C0.5 2.13368 0.5 2.13214 0.5 2.13062C0.5 2.12909 0.5 2.12758 0.5 2.12609C0.5 2.12459 0.5 2.12311 0.5 2.12164C0.5 2.12017 0.5 2.11872 0.5 2.11728C0.5 2.11584 0.5 2.11441 0.5 2.113C0.5 2.11159 0.5 2.11019 0.5 2.10881C0.5 2.10743 0.5 2.10606 0.5 2.1047C0.5 2.10334 0.5 2.102 0.5 2.10067C0.5 2.09934 0.5 2.09803 0.5 2.09673C0.5 2.09543 0.5 2.09414 0.5 2.09287C0.5 2.0916 0.5 2.09034 0.5 2.08909C0.5 2.08785 0.5 2.08661 0.5 2.0854C0.5 2.08418 0.5 2.08297 0.5 2.08178C0.5 2.08059 0.5 2.07942 0.5 2.07825C0.5 2.07709 0.5 2.07594 0.5 2.0748C0.5 2.07367 0.5 2.07254 0.5 2.07143C0.5 2.07032 0.5 2.06923 0.5 2.06815C0.5 2.06706 0.5 2.066 0.5 2.06494C0.5 2.06389 0.5 2.06284 0.5 2.06181C0.5 2.06079 0.5 2.05977 0.5 2.05877C0.5 2.05777 0.5 2.05678 0.5 2.0558C0.5 2.05483 0.5 2.05387 0.5 2.05292C0.5 2.05197 0.5 2.05104 0.5 2.05011C0.5 2.04919 0.5 2.04828 0.5 2.04739C0.5 2.04649 0.5 2.04561 0.5 2.04474C0.5 2.04387 0.5 2.04302 0.5 2.04217C0.5 2.04133 0.5 2.0405 0.5 2.03968C0.5 2.03887 0.5 2.03806 0.5 2.03727C0.5 2.03648 0.5 2.0357 0.5 2.03494C0.5 2.03417 0.5 2.03342 0.5 2.03268C0.5 2.03194 0.5 2.03122 0.5 2.03051C0.5 2.02979 0.5 2.02909 0.5 2.02841C0.5 2.02772 0.5 2.02704 0.5 2.02638C0.5 2.02572 0.5 2.02507 0.5 2.02444C0.5 2.0238 0.5 2.02318 0.5 2.02257C0.5 2.02196 0.5 2.02136 0.5 2.02077C0.5 2.02019 0.5 2.01962 0.5 2.01906C0.5 2.0185 0.5 2.01795 0.5 2.01741C0.5 2.01688 0.5 2.01636 0.5 2.01585C0.5 2.01534 0.5 2.01484 0.5 2.01436C0.5 2.01387 0.5 2.0134 0.5 2.01294C0.5 2.01248 0.5 2.01204 0.5 2.0116C0.5 2.01117 0.5 2.01075 0.5 2.01034C0.5 2.00993 0.5 2.00953 0.5 2.00915C0.5 2.00876 0.5 2.00839 0.5 2.00803C0.5 2.00767 0.5 2.00732 0.5 2.00699C0.5 2.00665 0.5 2.00633 0.5 2.00602C0.5 2.00571 0.5 2.00541 0.5 2.00512C0.5 2.00483 0.5 2.00456 0.5 2.0043C0.5 2.00404 0.5 2.00379 0.5 2.00355C0.5 2.00331 0.5 2.00308 0.5 2.00287C0.5 2.00266 0.5 2.00246 0.5 2.00227C0.5 2.00208 0.5 2.0019 0.5 2.00173C0.5 2.00157 0.5 2.00141 0.5 2.00127C0.5 2.00113 0.5 2.001 0.5 2.00088C0.5 2.00076 0.5 2.00066 0.5 2.00056C0.5 2.00047 0.5 2.00039 0.5 2.00032C0.5 2.00025 0.5 2.00019 0.5 2.00014C0.5 2.00009 0.5 2.00006 0.5 2.00004C0.5 2.00001 0.5 2 2 2C3.5 2 3.5 2.00001 3.5 2.00004C3.5 2.00006 3.5 2.00009 3.5 2.00014C3.5 2.00019 3.5 2.00025 3.5 2.00032C3.5 2.00039 3.5 2.00047 3.5 2.00056C3.5 2.00066 3.5 2.00076 3.5 2.00088C3.5 2.001 3.5 2.00113 3.5 2.00127C3.5 2.00141 3.5 2.00157 3.5 2.00173C3.5 2.0019 3.5 2.00208 3.5 2.00227C3.5 2.00246 3.5 2.00266 3.5 2.00287C3.5 2.00308 3.5 2.00331 3.5 2.00355C3.5 2.00379 3.5 2.00404 3.5 2.0043C3.5 2.00456 3.5 2.00483 3.5 2.00512C3.5 2.00541 3.5 2.00571 3.5 2.00602C3.5 2.00633 3.5 2.00665 3.5 2.00699C3.5 2.00732 3.5 2.00767 3.5 2.00803C3.5 2.00839 3.5 2.00876 3.5 2.00915C3.5 2.00953 3.5 2.00993 3.5 2.01034C3.5 2.01075 3.5 2.01117 3.5 2.0116C3.5 2.01204 3.5 2.01248 3.5 2.01294C3.5 2.0134 3.5 2.01387 3.5 2.01436C3.5 2.01484 3.5 2.01534 3.5 2.01585C3.5 2.01636 3.5 2.01688 3.5 2.01741C3.5 2.01795 3.5 2.0185 3.5 2.01906C3.5 2.01962 3.5 2.02019 3.5 2.02077C3.5 2.02136 3.5 2.02196 3.5 2.02257C3.5 2.02318 3.5 2.0238 3.5 2.02444C3.5 2.02507 3.5 2.02572 3.5 2.02638C3.5 2.02704 3.5 2.02772 3.5 2.02841C3.5 2.02909 3.5 2.02979 3.5 2.03051C3.5 2.03122 3.5 2.03194 3.5 2.03268C3.5 2.03342 3.5 2.03417 3.5 2.03494C3.5 2.0357 3.5 2.03648 3.5 2.03727C3.5 2.03806 3.5 2.03887 3.5 2.03968C3.5 2.0405 3.5 2.04133 3.5 2.04217C3.5 2.04302 3.5 2.04387 3.5 2.04474C3.5 2.04561 3.5 2.04649 3.5 2.04739C3.5 2.04828 3.5 2.04919 3.5 2.05011C3.5 2.05104 3.5 2.05197 3.5 2.05292C3.5 2.05387 3.5 2.05483 3.5 2.0558C3.5 2.05678 3.5 2.05777 3.5 2.05877C3.5 2.05977 3.5 2.06079 3.5 2.06181C3.5 2.06284 3.5 2.06389 3.5 2.06494C3.5 2.066 3.5 2.06706 3.5 2.06815C3.5 2.06923 3.5 2.07032 3.5 2.07143C3.5 2.07254 3.5 2.07367 3.5 2.0748C3.5 2.07594 3.5 2.07709 3.5 2.07825C3.5 2.07942 3.5 2.08059 3.5 2.08178C3.5 2.08297 3.5 2.08418 3.5 2.0854C3.5 2.08661 3.5 2.08785 3.5 2.08909C3.5 2.09034 3.5 2.0916 3.5 2.09287C3.5 2.09414 3.5 2.09543 3.5 2.09673C3.5 2.09803 3.5 2.09934 3.5 2.10067C3.5 2.102 3.5 2.10334 3.5 2.1047C3.5 2.10606 3.5 2.10743 3.5 2.10881C3.5 2.11019 3.5 2.11159 3.5 2.113C3.5 2.11441 3.5 2.11584 3.5 2.11728C3.5 2.11872 3.5 2.12017 3.5 2.12164C3.5 2.12311 3.5 2.12459 3.5 2.12609C3.5 2.12758 3.5 2.12909 3.5 2.13062C3.5 2.13214 3.5 2.13368 3.5 2.13523C3.5 2.13678 3.5 2.13835 3.5 2.13993C3.5 2.14151 3.5 2.14311 3.5 2.14472C3.5 2.14633 3.5 2.14795 3.5 2.14959C3.5 2.15123 3.5 2.15288 3.5 2.15455C3.5 2.15621 3.5 2.15789 3.5 2.15959C3.5 2.16129 3.5 2.163 3.5 2.16472C3.5 2.16644 3.5 2.16818 3.5 2.16994C3.5 2.17169 3.5 2.17346 3.5 2.17524C3.5 2.17702 3.5 2.17882 3.5 2.18063C3.5 2.18244 3.5 2.18427 3.5 2.18611C3.5 2.18795 3.5 2.1898 3.5 2.19167C3.5 2.19354 3.5 2.19543 3.5 2.19733C3.5 2.19923 3.5 2.20114 3.5 2.20307C3.5 2.205 3.5 2.20694 3.5 2.2089C3.5 2.21086 3.5 2.21283 3.5 2.21482C3.5 2.2168 3.5 2.21881 3.5 2.22082C3.5 2.22284 3.5 2.22487 3.5 2.22692C3.5 2.22897 3.5 2.23103 3.5 2.23311C3.5 2.23518 3.5 2.23727 3.5 2.23938C3.5 2.24149 3.5 2.24361 3.5 2.24575C3.5 2.24788 3.5 2.25004 3.5 2.2522C3.5 2.25437 3.5 2.25655 3.5 2.25875C3.5 2.26094 3.5 2.26316 3.5 2.26538C3.5 2.26761 3.5 2.26985 3.5 2.27211C3.5 2.27437 3.5 2.27664 3.5 2.27893C3.5 2.28122 3.5 2.28352 3.5 2.28584C3.5 2.28816 3.5 2.29049 3.5 2.29284C3.5 2.29519 3.5 2.29756 3.5 2.29994C3.5 2.30231 3.5 2.30471 3.5 2.30712C3.5 2.30953 3.5 2.31196 3.5 2.3144C3.5 2.31684 3.5 2.3193 3.5 2.32177C3.5 2.32424 3.5 2.32673 3.5 2.32923C3.5 2.33174 3.5 2.33425 3.5 2.33679C3.5 2.33932 3.5 2.34187 3.5 2.34444C3.5 2.347 3.5 2.34959 3.5 2.35218C3.5 2.35478 3.5 2.35739 3.5 2.36002C3.5 2.36265 3.5 2.36529 3.5 2.36795C3.5 2.37061 3.5 2.37329 3.5 2.37598C3.5 2.37867 3.5 2.38138 3.5 2.3841C3.5 2.38682 3.5 2.38956 3.5 2.39231C3.5 2.39507 3.5 2.39784 3.5 2.40062C3.5 2.40341 3.5 2.40621 3.5 2.40903C3.5 2.41185 3.5 2.41468 3.5 2.41753C3.5 2.42038 3.5 2.42325 3.5 2.42613C3.5 2.42901 3.5 2.43191 3.5 2.43482C3.5 2.43774 3.5 2.44067 3.5 2.44361C3.5 2.44656 3.5 2.44952 3.5 2.4525C3.5 2.45548 3.5 2.45847 3.5 2.46148C3.5 2.46449 3.5 2.46752 3.5 2.47056C3.5 2.47361 3.5 2.47667 3.5 2.47974C3.5 2.48282 3.5 2.48591 3.5 2.48902C3.5 2.49213 3.5 2.49525 3.5 2.49839C3.5 2.50153 3.5 2.50469 3.5 2.50786C3.5 2.51104 3.5 2.51423 3.5 2.51743C3.5 2.52064 3.5 2.52386 3.5 2.5271C3.5 2.53034 3.5 2.5336 3.5 2.53687C3.5 2.54014 3.5 2.54343 3.5 2.54674C3.5 2.55004 3.5 2.55336 3.5 2.5567C3.5 2.56004 3.5 2.5634 3.5 2.56677C3.5 2.57014 3.5 2.57353 3.5 2.57693C3.5 2.58034 3.5 2.58376 3.5 2.5872C3.5 2.59064 3.5 2.59409 3.5 2.59756C3.5 2.60104 3.5 2.60453 3.5 2.60803C3.5 2.61154 3.5 2.61506 3.5 2.6186C3.5 2.62214 3.5 2.62569 3.5 2.62927C3.5 2.63284 3.5 2.63643 3.5 2.64004C3.5 2.64364 3.5 2.64727 3.5 2.65091C3.5 2.65455 3.5 2.65821 3.5 2.66188C3.5 2.66556 3.5 2.66925 3.5 2.67296C3.5 2.67667 3.5 2.68039 3.5 2.68414C3.5 2.68788 3.5 2.69164 3.5 2.69542C3.5 2.6992 3.5 2.70299 3.5 2.7068C3.5 2.71061 3.5 2.71444 3.5 2.71829C3.5 2.72213 3.5 2.726 3.5 2.72988C3.5 2.73376 3.5 2.73766 3.5 2.74157C3.5 2.74549 3.5 2.74942 3.5 2.75337C3.5 2.75732 3.5 2.76129 3.5 2.76527C3.5 2.76926 3.5 2.77326 3.5 2.77728C3.5 2.7813 3.5 2.78533 3.5 2.78939C3.5 2.79344 3.5 2.79752 3.5 2.8016C3.5 2.80569 3.5 2.8098 3.5 2.81393C3.5 2.81805 3.5 2.82219 3.5 2.82635C3.5 2.83051 3.5 2.83469 3.5 2.83888C3.5 2.84308 3.5 2.84729 3.5 2.85152C3.5 2.85575 3.5 2.86 3.5 2.86427C3.5 2.86853 3.5 2.87281 3.5 2.87712C3.5 2.88142 3.5 2.88574 3.5 2.89007C3.5 2.89441 3.5 2.89876 3.5 2.90314C3.5 2.90751 3.5 2.9119 3.5 2.91631C3.5 2.92072 3.5 2.92514 3.5 2.92959C3.5 2.93403 3.5 2.93849 3.5 2.94297C3.5 2.94745 3.5 2.95195 3.5 2.95647C3.5 2.96098 3.5 2.96551 3.5 2.97007C3.5 2.97462 3.5 2.97919 3.5 2.98378C3.5 2.98837 3.5 2.99297 3.5 2.9976C3.5 3.00222 3.5 3.00686 3.5 3.01152C3.5 3.01618 3.5 3.02086 3.5 3.02556C3.5 3.03026 3.5 3.03497 3.5 3.03971C3.5 3.04444 3.5 3.04919 3.5 3.05396C3.5 3.05873 3.5 3.06352 3.5 3.06833C3.5 3.07314 3.5 3.07796 3.5 3.08281C3.5 3.08765 3.5 3.09251 3.5 3.09739C3.5 3.10227 3.5 3.10717 3.5 3.11209C3.5 3.11701 3.5 3.12194 3.5 3.1269C3.5 3.13185 3.5 3.13682 3.5 3.14182C3.5 3.14681 3.5 3.15182 3.5 3.15685C3.5 3.16187 3.5 3.16692 3.5 3.17199C3.5 3.17705 3.5 3.18214 3.5 3.18724C3.5 3.19235 3.5 3.19747 3.5 3.20261C3.5 3.20775 3.5 3.21291 3.5 3.21809C3.5 3.22327 3.5 3.22846 3.5 3.23368C3.5 3.23889 3.5 3.24413 3.5 3.24938C3.5 3.25464 3.5 3.25991 3.5 3.2652C3.5 3.27049 3.5 3.2758 3.5 3.28113C3.5 3.28646 3.5 3.29181 3.5 3.29717C3.5 3.30254 3.5 3.30793 3.5 3.31333C3.5 3.31874 3.5 3.32416 3.5 3.3296C3.5 3.33505 3.5 3.34051 3.5 3.34599C3.5 3.35147 3.5 3.35697 3.5 3.36249C3.5 3.36801 3.5 3.37355 3.5 3.37911C3.5 3.38467 3.5 3.39024 3.5 3.39584C3.5 3.40143 3.5 3.40705 3.5 3.41269C3.5 3.41832 3.5 3.42397 3.5 3.42965C3.5 3.43532 3.5 3.44101 3.5 3.44673C3.5 3.45244 3.5 3.45817 3.5 3.46392C3.5 3.46967 3.5 3.47544 3.5 3.48123C3.5 3.48702 3.5 3.49283 3.5 3.49866C3.5 3.50449 3.5 3.51033 3.5 3.5162C3.5 3.52207 3.5 3.52796 3.5 3.53386C3.5 3.53977 3.5 3.5457 3.5 3.55164C3.5 3.55759 3.5 3.56355 3.5 3.56954C3.5 3.57552 3.5 3.58153 3.5 3.58755C3.5 3.59358 3.5 3.59962 3.5 3.60568C3.5 3.61175 3.5 3.61783 3.5 3.62393C3.5 3.63004 3.5 3.63616 3.5 3.6423C3.5 3.64845 3.5 3.65461 3.5 3.66079C3.5 3.66697 3.5 3.67318 3.5 3.6794C3.5 3.68562 3.5 3.69186 3.5 3.69813C3.5 3.70439 3.5 3.71067 3.5 3.71697C3.5 3.72327 3.5 3.7296 3.5 3.73594C3.5 3.74228 3.5 3.74864 3.5 3.75503C3.5 3.76141 3.5 3.76781 3.5 3.77423C3.5 3.78065 3.5 3.7871 3.5 3.79356C3.5 3.80002 3.5 3.8065 3.5 3.81301C3.5 3.81951 3.5 3.82603 3.5 3.83258C3.5 3.83912 3.5 3.84568 3.5 3.85227C3.5 3.85885 3.5 3.86546 3.5 3.87208C3.5 3.8787 3.5 3.88535 3.5 3.89201C3.5 3.89868 3.5 3.90537 3.5 3.91207C3.5 3.91878 3.5 3.9255 3.5 3.93225C3.5 3.939 3.5 3.94576 3.5 3.95255C3.5 3.95934 3.5 3.96615 3.5 3.97298C3.5 3.9798 3.5 3.98665 3.5 3.99352C3.5 4.00039 3.5 4.00728 3.5 4.01419C3.5 4.0211 3.5 4.02804 3.5 4.03499C3.5 4.04194 3.5 4.04891 3.5 4.05591C3.5 4.0629 3.5 4.06991 3.5 4.07695C3.5 4.08398 3.5 4.09104 3.5 4.09812C3.5 4.10519 3.5 4.11229 3.5 4.11941C3.5 4.12653 3.5 4.13366 3.5 4.14082C3.5 4.14798 3.5 4.15516 3.5 4.16237C3.5 4.16957 3.5 4.17679 3.5 4.18403C3.5 4.19128 3.5 4.19854 3.5 4.20583C3.5 4.21311 3.5 4.22042 3.5 4.22774C3.5 4.23507 3.5 4.24242 3.5 4.24979C3.5 4.25716 3.5 4.26455 3.5 4.27196C3.5 4.27937 3.5 4.2868 3.5 4.29426C3.5 4.30171 3.5 4.30919 3.5 4.31668C3.5 4.32418 3.5 4.33169 3.5 4.33923C3.5 4.34677 3.5 4.35433 3.5 4.36191C3.5 4.36949 3.5 4.37709 3.5 4.38472C3.5 4.39234 3.5 4.39999 3.5 4.40765C3.5 4.41532 3.5 4.42301 3.5 4.43072C3.5 4.43842 3.5 4.44615 3.5 4.45391C3.5 4.46166 3.5 4.46943 3.5 4.47723C3.5 4.48502 3.5 4.49284 3.5 4.50067C3.5 4.50851 3.5 4.51637 3.5 4.52425C3.5 4.53213 3.5 4.54004 3.5 4.54796C3.5 4.55588 3.5 4.56383 3.5 4.5718C3.5 4.57976 3.5 4.58775 3.5 4.59576C3.5 4.60377 3.5 4.61181 3.5 4.61986C3.5 4.62791 3.5 4.63599 3.5 4.64409C3.5 4.65218 3.5 4.6603 3.5 4.66844C3.5 4.67659 3.5 4.68475 3.5 4.69293C3.5 4.70112 3.5 4.70932 3.5 4.71755C3.5 4.72578 3.5 4.73403 3.5 4.7423C3.5 4.75058 3.5 4.75887 3.5 4.76719C3.5 4.7755 3.5 4.78384 3.5 4.7922C3.5 4.80056 3.5 4.80894 3.5 4.81735C3.5 4.82575 3.5 4.83418 3.5 4.84263C3.5 4.85108 3.5 4.85955 3.5 4.86804C3.5 4.87653 3.5 4.88505 3.5 4.89358C3.5 4.90212 3.5 4.91068 3.5 4.91926C3.5 4.92784 3.5 4.93645 3.5 4.94507C3.5 4.9537 3.5 4.96235 3.5 4.97102C3.5 4.97969 3.5 4.98838 3.5 4.9971C3.5 5.00581 3.5 5.01455 3.5 5.02331C3.5 5.03207 3.5 5.04085 3.5 5.04966C3.5 5.05846 3.5 5.06729 3.5 5.07614C3.5 5.08499 3.5 5.09386 3.5 5.10276C3.5 5.11165 3.5 5.12057 3.5 5.12951C3.5 5.13845 3.5 5.14741 3.5 5.1564C3.5 5.16538 3.5 5.17439 3.5 5.18342C3.5 5.19245 3.5 5.2015 3.5 5.21058C3.5 5.21965 3.5 5.22875 3.5 5.23787C3.5 5.24699 3.5 5.25614 3.5 5.2653C3.5 5.27447 3.5 5.28366 3.5 5.29287C3.5 5.30208 3.5 5.31132 3.5 5.32058C3.5 5.32983 3.5 5.33911 3.5 5.34842C3.5 5.35772 3.5 5.36705 3.5 5.3764C3.5 5.38575 3.5 5.39512 3.5 5.40451C3.5 5.41391 3.5 5.42333 3.5 5.43277C3.5 5.44221 3.5 5.45168 3.5 5.46116C3.5 5.47065 3.5 5.48016 3.5 5.48969C3.5 5.49923 3.5 5.50878 3.5 5.51836C3.5 5.52794 3.5 5.53755 3.5 5.54717C3.5 5.5568 3.5 5.56645 3.5 5.57612C3.5 5.58579 3.5 5.59549 3.5 5.60521C3.5 5.61493 3.5 5.62467 3.5 5.63444C3.5 5.6442 3.5 5.65399 3.5 5.6638C3.5 5.67362 3.5 5.68345 3.5 5.69331C3.5 5.70317 3.5 5.71305 3.5 5.72296C3.5 5.73286 3.5 5.74279 3.5 5.75275C3.5 5.7627 3.5 5.77268 3.5 5.78268C3.5 5.79268 3.5 5.8027 3.5 5.81275C3.5 5.82279 3.5 5.83286 3.5 5.84296C3.5 5.85305 3.5 5.86317 3.5 5.87331C3.5 5.88345 3.5 5.89362 3.5 5.90381C3.5 5.91399 3.5 5.92421 3.5 5.93444C3.5 5.94468 3.5 5.95494 3.5 5.96522C3.5 5.97551 3.5 5.98581 3.5 5.99614C3.5 6.00648 3.5 6.01683 3.5 6.02721C3.5 6.03759 3.5 6.04799 3.5 6.05842C3.5 6.06884 3.5 6.0793 3.5 6.08977C3.5 6.10024 3.5 6.11074 3.5 6.12127C3.5 6.13179 3.5 6.14233 3.5 6.1529C3.5 6.16347 3.5 6.17407 3.5 6.18469C3.5 6.19531 3.5 6.20595 3.5 6.21662C3.5 6.22728 3.5 6.23797 3.5 6.24869C3.5 6.2594 3.5 6.27014 3.5 6.28091C3.5 6.29167 3.5 6.30246 3.5 6.31327C3.5 6.32408 3.5 6.33492 3.5 6.34578C3.5 6.35664 3.5 6.36752 3.5 6.37843C3.5 6.38934 3.5 6.40027 3.5 6.41123C3.5 6.42219 3.5 6.43317 3.5 6.44417C3.5 6.45518 3.5 6.46621 3.5 6.47727C3.5 6.48832 3.5 6.4994 3.5 6.5105C3.5 6.52161 3.5 6.53274 3.5 6.54389C3.5 6.55504 3.5 6.56622 3.5 6.57742C3.5 6.58862 3.5 6.59985 3.5 6.6111C3.5 6.62235 3.5 6.63363 3.5 6.64493C3.5 6.65623 3.5 6.66755 3.5 6.6789C3.5 6.69025 3.5 6.70163 3.5 6.71303C3.5 6.72443 3.5 6.73585 3.5 6.7473C3.5 6.75875 3.5 6.77022 3.5 6.78172C3.5 6.79322 3.5 6.80474 3.5 6.81629C3.5 6.82784 3.5 6.83941 3.5 6.85101C3.5 6.86261 3.5 6.87423 3.5 6.88588C3.5 6.89752 3.5 6.9092 3.5 6.92089C3.5 6.93259 3.5 6.94431 3.5 6.95606C3.5 6.96781 3.5 6.97958 3.5 6.99138C3.5 7.00318 3.5 7.015 3.5 7.02685C3.5 7.0387 3.5 7.05057 3.5 7.06247C3.5 7.07436 3.5 7.08629 3.5 7.09824C3.5 7.11018 3.5 7.12216 3.5 7.13416C3.5 7.14616 3.5 7.15818 3.5 7.17023C3.5 7.18228 3.5 7.19435 3.5 7.20645C3.5 7.21855 3.5 7.23068 3.5 7.24283C3.5 7.25498 3.5 7.26715 3.5 7.27936C3.5 7.29156 3.5 7.30378 3.5 7.31604C3.5 7.32829 3.5 7.34057 3.5 7.35287C3.5 7.36517 3.5 7.3775 3.5 7.38985C3.5 7.40221 3.5 7.41459 3.5 7.42699C3.5 7.4394 3.5 7.45183 3.5 7.46429C3.5 7.47674 3.5 7.48922 3.5 7.50173C3.5 7.51424 3.5 7.52677 3.5 7.53933C3.5 7.55189 3.5 7.56447 3.5 7.57708C3.5 7.58969 3.5 7.60233 3.5 7.61499C3.5 7.62765 3.5 7.64034 3.5 7.65306C3.5 7.66577 3.5 7.67851 3.5 7.69127C3.5 7.70404 3.5 7.71683 3.5 7.72965C3.5 7.74246 3.5 7.75531 3.5 7.76817C3.5 7.78104 3.5 7.79394 3.5 7.80686C3.5 7.81978 3.5 7.83273 3.5 7.8457C3.5 7.85867 3.5 7.87167 3.5 7.88469C3.5 7.89772 3.5 7.91077 3.5 7.92385C3.5 7.93692 3.5 7.95003 3.5 7.96316C3.5 7.97628 3.5 7.98944 3.5 8.00262C3.5 8.0158 3.5 8.02901 3.5 8.04224C3.5 8.05548 3.5 8.06874 3.5 8.08202C3.5 8.09531 3.5 8.10862 3.5 8.12196C3.5 8.1353 3.5 8.14867 3.5 8.16206C3.5 8.17545 3.5 8.18887 3.5 8.20231C3.5 8.21576 3.5 8.22923 3.5 8.24273C3.5 8.25622 3.5 8.26975 3.5 8.2833C3.5 8.29685 3.5 8.31042 3.5 8.32403C3.5 8.33763 3.5 8.35126 3.5 8.36492C3.5 8.37857 3.5 8.39225 3.5 8.40596C3.5 8.41967 3.5 8.43341 3.5 8.44717C3.5 8.46093 3.5 8.47472 3.5 8.48854C3.5 8.50236 3.5 8.5162 3.5 8.53007C3.5 8.54394 3.5 8.55783 3.5 8.57176C3.5 8.58568 3.5 8.59963 3.5 8.61361C3.5 8.62758 3.5 8.64159 3.5 8.65562C3.5 8.66965 3.5 8.6837 3.5 8.69779C3.5 8.71187 3.5 8.72598 3.5 8.74012C3.5 8.75426 3.5 8.76842 3.5 8.78261C3.5 8.79681 3.5 8.81102 3.5 8.82527C3.5 8.83952 3.5 8.85379 3.5 8.86809C3.5 8.88239 3.5 8.89672 3.5 8.91107C3.5 8.92542 3.5 8.9398 3.5 8.95421C3.5 8.96862 3.5 8.98306 3.5 8.99752C3.5 9.01198 3.5 9.02647 3.5 9.04099C3.5 9.05551 3.5 9.07005 3.5 9.08462C3.5 9.09919 3.5 9.11379 3.5 9.12842C3.5 9.14304 3.5 9.1577 3.5 9.17238C3.5 9.18706 3.5 9.20177 3.5 9.2165C3.5 9.23124 3.5 9.246 3.5 9.26079C3.5 9.27558 3.5 9.2904 3.5 9.30524C3.5 9.32009 3.5 9.33496 3.5 9.34986C3.5 9.36476 3.5 9.37969 3.5 9.39465C3.5 9.4096 3.5 9.42458 3.5 9.43959C3.5 9.45461 3.5 9.46964 3.5 9.48471C3.5 9.49977 3.5 9.51487 3.5 9.52999C3.5 9.54511 3.5 9.56026 3.5 9.57544C3.5 9.59061 3.5 9.60582 3.5 9.62105C3.5 9.63628 3.5 9.65154 3.5 9.66683C3.5 9.68212 3.5 9.69743 3.5 9.71277C3.5 9.72812 3.5 9.74349 3.5 9.75889C3.5 9.77429 3.5 9.78971 3.5 9.80517C3.5 9.82062 3.5 9.83611 3.5 9.85162C3.5 9.86713 3.5 9.88267 3.5 9.89823C3.5 9.9138 3.5 9.9294 3.5 9.94502C3.5 9.96064 3.5 9.97629 3.5 9.99197C3.5 10.0077 3.5 10.0234 3.5 10.0391C3.5 10.0548 3.5 10.0706 3.5 10.0864C3.5 10.1022 3.5 10.118 3.5 10.1338C3.5 10.1497 3.5 10.1656 3.5 10.1815C3.5 10.1974 3.5 10.2133 3.5 10.2293C3.5 10.2452 3.5 10.2612 3.5 10.2772C3.5 10.2933 3.5 10.3093 3.5 10.3254C3.5 10.3415 3.5 10.3576 3.5 10.3737C3.5 10.3898 3.5 10.406 3.5 10.4222C3.5 10.4384 3.5 10.4546 3.5 10.4708C3.5 10.4871 3.5 10.5033 3.5 10.5196C3.5 10.5359 3.5 10.5523 3.5 10.5686C3.5 10.585 3.5 10.6014 3.5 10.6178C3.5 10.6342 3.5 10.6507 3.5 10.6671C3.5 10.6836 3.5 10.7001 3.5 10.7166C3.5 10.7332 3.5 10.7497 3.5 10.7663C3.5 10.7829 3.5 10.7995 3.5 10.8162C3.5 10.8328 3.5 10.8495 3.5 10.8662C3.5 10.8829 3.5 10.8996 3.5 10.9164C3.5 10.9332 3.5 10.95 3.5 10.9668C3.5 10.9836 3.5 11.0004 3.5 11.0173C3.5 11.0342 3.5 11.0511 3.5 11.068C3.5 11.085 3.5 11.1019 3.5 11.1189C3.5 11.1359 3.5 11.153 3.5 11.17C3.5 11.1871 3.5 11.2041 3.5 11.2213C3.5 11.2384 3.5 11.2555 3.5 11.2727C3.5 11.2898 3.5 11.307 3.5 11.3243C3.5 11.3415 3.5 11.3588 3.5 11.376C3.5 11.3933 3.5 11.4106 3.5 11.428C3.5 11.4453 3.5 11.4627 3.5 11.4801C3.5 11.4975 3.5 11.5149 3.5 11.5324C3.5 11.5499 3.5 11.5674 3.5 11.5849C3.5 11.6024 3.5 11.6199 3.5 11.6375C3.5 11.6551 3.5 11.6727 3.5 11.6904C3.5 11.708 3.5 11.7257 3.5 11.7434C3.5 11.7611 3.5 11.7788 3.5 11.7965C3.5 11.8143 3.5 11.8321 3.5 11.8499C3.5 11.8677 3.5 11.8856 3.5 11.9034C3.5 11.9213 3.5 11.9392 3.5 11.9571C3.5 11.9751 3.5 11.993 3.5 12.011C3.5 12.029 3.5 12.0471 3.5 12.0651C3.5 12.0832 3.5 12.1013 3.5 12.1194C3.5 12.1375 3.5 12.1556 3.5 12.1738C3.5 12.192 3.5 12.2102 3.5 12.2284C3.5 12.2466 3.5 12.2649 3.5 12.2832C3.5 12.3015 3.5 12.3198 3.5 12.3382C3.5 12.3565 3.5 12.3749 3.5 12.3933C3.5 12.4117 3.5 12.4302 3.5 12.4486C3.5 12.4671 3.5 12.4856 3.5 12.5042C3.5 12.5227 3.5 12.5413 3.5 12.5598C3.5 12.5784 3.5 12.5971 3.5 12.6157C3.5 12.6344 3.5 12.6531 3.5 12.6718C3.5 12.6905 3.5 12.7092 3.5 12.728C3.5 12.7468 3.5 12.7656 3.5 12.7844C3.5 12.8033 3.5 12.8221 3.5 12.841C3.5 12.8599 3.5 12.8788 3.5 12.8978C3.5 12.9168 3.5 12.9358 3.5 12.9548C3.5 12.9738 3.5 12.9928 3.5 13.0119C3.5 13.031 3.5 13.0501 3.5 13.0692C3.5 13.0884 3.5 13.1076 3.5 13.1268C3.5 13.146 3.5 13.1652 3.5 13.1845C3.5 13.2037 3.5 13.223 3.5 13.2423C3.5 13.2617 3.5 13.281 3.5 13.3004C3.5 13.3198 3.5 13.3392 3.5 13.3587C3.5 13.3781 3.5 13.3976 3.5 13.4171C3.5 13.4366 3.5 13.4561 3.5 13.4757C3.5 13.4953 3.5 13.5149 3.5 13.5345C3.5 13.5541 3.5 13.5738 3.5 13.5935C3.5 13.6132 3.5 13.6329 3.5 13.6527C3.5 13.6724 3.5 13.6922 3.5 13.712C3.5 13.7319 3.5 13.7517 3.5 13.7716C3.5 13.7915 3.5 13.8114 3.5 13.8313C3.5 13.8513 3.5 13.8712 3.5 13.8912C3.5 13.9112 3.5 13.9313 3.5 13.9514C3.5 13.9714 3.5 13.9915 3.5 14.0116C3.5 14.0318 3.5 14.0519 3.5 14.0721C3.5 14.0923 3.5 14.1125 3.5 14.1328C3.5 14.1531 3.5 14.1733 3.5 14.1937C3.5 14.214 3.5 14.2343 3.5 14.2547C3.5 14.2751 3.5 14.2955 3.5 14.3159C3.5 14.3364 3.5 14.3569 3.5 14.3774C3.5 14.3979 3.5 14.4184 3.5 14.439C3.5 14.4595 3.5 14.4801 3.5 14.5008C3.5 14.5214 3.5 14.5421 3.5 14.5628C3.5 14.5835 3.5 14.6042 3.5 14.6249C3.5 14.6457 3.5 14.6665 3.5 14.6873C3.5 14.7081 3.5 14.729 3.5 14.7499C3.5 14.7708 3.5 14.7917 3.5 14.8126C3.5 14.8336 3.5 14.8546 3.5 14.8756C3.5 14.8966 3.5 14.9176 3.5 14.9387C3.5 14.9598 3.5 14.9809 3.5 15.002C3.5 15.0232 3.5 15.0443 3.5 15.0655C3.5 15.0867 3.5 15.108 3.5 15.1292C3.5 15.1505 3.5 15.1718 3.5 15.1931C3.5 15.2145 3.5 15.2358 3.5 15.2572C3.5 15.2786 3.5 15.3001 3.5 15.3215C3.5 15.343 3.5 15.3645 3.5 15.386C3.5 15.4075 3.5 15.4291 3.5 15.4507C3.5 15.4722 3.5 15.4939 3.5 15.5155C3.5 15.5372 3.5 15.5589 3.5 15.5806C3.5 15.6023 3.5 15.624 3.5 15.6458C3.5 15.6676 3.5 15.6894 3.5 15.7113C3.5 15.7331 3.5 15.755 3.5 15.7769C3.5 15.7988 3.5 15.8208 3.5 15.8427C3.5 15.8647 3.5 15.8867 3.5 15.9088C3.5 15.9308 3.5 15.9529 3.5 15.975C3.5 15.9971 3.5 16.0192 3.5 16.0414C3.5 16.0636 3.5 16.0858 3.5 16.108C3.5 16.1302 3.5 16.1525 3.5 16.1748C3.5 16.1971 3.5 16.2194 3.5 16.2418C3.5 16.2642 3.5 16.2866 3.5 16.309C3.5 16.3314 3.5 16.3539 3.5 16.3764C3.5 16.3989 3.5 16.4214 3.5 16.444C3.5 16.4666 3.5 16.4892 3.5 16.5118C3.5 16.5344 3.5 16.5571 3.5 16.5798C3.5 16.6025 3.5 16.6252 3.5 16.6479C3.5 16.6707 3.5 16.6935 3.5 16.7163C3.5 16.7392 3.5 16.762 3.5 16.7849H0.5ZM7 18.9869C7 20.4869 7 20.4869 6.99999 20.4869C6.99998 20.4869 6.99997 20.4869 6.99995 20.4869C6.99994 20.4869 6.99992 20.4869 6.9999 20.4869C6.99987 20.4869 6.99985 20.4869 6.99982 20.4869C6.99979 20.4869 6.99975 20.4869 6.99972 20.4869C6.99968 20.4869 6.99964 20.4869 6.99959 20.4869C6.99955 20.4869 6.9995 20.4869 6.99944 20.4869C6.99939 20.4869 6.99933 20.4869 6.99927 20.4869C6.99921 20.4869 6.99915 20.4869 6.99908 20.4869C6.99901 20.4869 6.99894 20.4869 6.99887 20.4869C6.99879 20.4869 6.99871 20.4869 6.99863 20.4869C6.99855 20.4869 6.99846 20.4869 6.99837 20.4869C6.99828 20.4869 6.99819 20.4869 6.99809 20.4869C6.99799 20.4869 6.99789 20.4869 6.99779 20.4869C6.99768 20.4869 6.99757 20.4869 6.99746 20.4869C6.99735 20.4869 6.99724 20.4869 6.99712 20.4869C6.997 20.4869 6.99687 20.4869 6.99675 20.4869C6.99662 20.4869 6.99649 20.4869 6.99636 20.4869C6.99622 20.4869 6.99609 20.4869 6.99595 20.4869C6.9958 20.4869 6.99566 20.4869 6.99551 20.4869C6.99536 20.4869 6.99521 20.4869 6.99506 20.4869C6.9949 20.4869 6.99474 20.4869 6.99458 20.4869C6.99442 20.4869 6.99425 20.4869 6.99408 20.4869C6.99391 20.4869 6.99374 20.4869 6.99356 20.4869C6.99339 20.4869 6.99321 20.4869 6.99302 20.4869C6.99284 20.4869 6.99265 20.4869 6.99246 20.4869C6.99227 20.4869 6.99208 20.4869 6.99188 20.4869C6.99168 20.4869 6.99148 20.4869 6.99127 20.4869C6.99107 20.4869 6.99086 20.4869 6.99065 20.4869C6.99044 20.4869 6.99022 20.4869 6.99 20.4869C6.98978 20.4869 6.98956 20.4869 6.98934 20.4869C6.98911 20.4869 6.98888 20.4869 6.98865 20.4869C6.98841 20.4869 6.98818 20.4869 6.98794 20.4869C6.9877 20.4869 6.98746 20.4869 6.98721 20.4869C6.98696 20.4869 6.98671 20.4869 6.98646 20.4869C6.98621 20.4869 6.98595 20.4869 6.98569 20.4869C6.98543 20.4869 6.98517 20.4869 6.9849 20.4869C6.98463 20.4869 6.98436 20.4869 6.98409 20.4869C6.98381 20.4869 6.98354 20.4869 6.98326 20.4869C6.98298 20.4869 6.98269 20.4869 6.9824 20.4869C6.98212 20.4869 6.98183 20.4869 6.98153 20.4869C6.98124 20.4869 6.98094 20.4869 6.98064 20.4869C6.98034 20.4869 6.98004 20.4869 6.97973 20.4869C6.97942 20.4869 6.97911 20.4869 6.9788 20.4869C6.97848 20.4869 6.97816 20.4869 6.97784 20.4869C6.97752 20.4869 6.9772 20.4869 6.97687 20.4869C6.97654 20.4869 6.97621 20.4869 6.97588 20.4869C6.97555 20.4869 6.97521 20.4869 6.97487 20.4869C6.97453 20.4869 6.97418 20.4869 6.97384 20.4869C6.97349 20.4869 6.97314 20.4869 6.97279 20.4869C6.97243 20.4869 6.97208 20.4869 6.97172 20.4869C6.97136 20.4869 6.97099 20.4869 6.97063 20.4869C6.97026 20.4869 6.96989 20.4869 6.96952 20.4869C6.96914 20.4869 6.96877 20.4869 6.96839 20.4869C6.96801 20.4869 6.96763 20.4869 6.96724 20.4869C6.96686 20.4869 6.96647 20.4869 6.96607 20.4869C6.96568 20.4869 6.96529 20.4869 6.96489 20.4869C6.96449 20.4869 6.96409 20.4869 6.96368 20.4869C6.96328 20.4869 6.96287 20.4869 6.96246 20.4869C6.96205 20.4869 6.96163 20.4869 6.96122 20.4869C6.9608 20.4869 6.96038 20.4869 6.95995 20.4869C6.95953 20.4869 6.9591 20.4869 6.95867 20.4869C6.95824 20.4869 6.95781 20.4869 6.95737 20.4869C6.95694 20.4869 6.9565 20.4869 6.95605 20.4869C6.95561 20.4869 6.95517 20.4869 6.95472 20.4869C6.95427 20.4869 6.95382 20.4869 6.95336 20.4869C6.95291 20.4869 6.95245 20.4869 6.95199 20.4869C6.95153 20.4869 6.95106 20.4869 6.9506 20.4869C6.95013 20.4869 6.94966 20.4869 6.94919 20.4869C6.94871 20.4869 6.94824 20.4869 6.94776 20.4869C6.94728 20.4869 6.9468 20.4869 6.94631 20.4869C6.94582 20.4869 6.94534 20.4869 6.94485 20.4869C6.94435 20.4869 6.94386 20.4869 6.94336 20.4869C6.94286 20.4869 6.94236 20.4869 6.94186 20.4869C6.94136 20.4869 6.94085 20.4869 6.94034 20.4869C6.93983 20.4869 6.93932 20.4869 6.9388 20.4869C6.93829 20.4869 6.93777 20.4869 6.93725 20.4869C6.93673 20.4869 6.9362 20.4869 6.93568 20.4869C6.93515 20.4869 6.93462 20.4869 6.93409 20.4869C6.93355 20.4869 6.93302 20.4869 6.93248 20.4869C6.93194 20.4869 6.9314 20.4869 6.93085 20.4869C6.93031 20.4869 6.92976 20.4869 6.92921 20.4869C6.92866 20.4869 6.92811 20.4869 6.92755 20.4869C6.927 20.4869 6.92644 20.4869 6.92587 20.4869C6.92531 20.4869 6.92475 20.4869 6.92418 20.4869C6.92361 20.4869 6.92304 20.4869 6.92247 20.4869C6.92189 20.4869 6.92132 20.4869 6.92074 20.4869C6.92016 20.4869 6.91958 20.4869 6.91899 20.4869C6.91841 20.4869 6.91782 20.4869 6.91723 20.4869C6.91664 20.4869 6.91605 20.4869 6.91545 20.4869C6.91485 20.4869 6.91426 20.4869 6.91365 20.4869C6.91305 20.4869 6.91245 20.4869 6.91184 20.4869C6.91123 20.4869 6.91062 20.4869 6.91001 20.4869C6.9094 20.4869 6.90878 20.4869 6.90816 20.4869C6.90754 20.4869 6.90692 20.4869 6.9063 20.4869C6.90568 20.4869 6.90505 20.4869 6.90442 20.4869C6.90379 20.4869 6.90316 20.4869 6.90252 20.4869C6.90189 20.4869 6.90125 20.4869 6.90061 20.4869C6.89997 20.4869 6.89933 20.4869 6.89868 20.4869C6.89803 20.4869 6.89739 20.4869 6.89673 20.4869C6.89608 20.4869 6.89543 20.4869 6.89477 20.4869C6.89412 20.4869 6.89346 20.4869 6.8928 20.4869C6.89213 20.4869 6.89147 20.4869 6.8908 20.4869C6.89013 20.4869 6.88946 20.4869 6.88879 20.4869C6.88812 20.4869 6.88744 20.4869 6.88677 20.4869C6.88609 20.4869 6.88541 20.4869 6.88472 20.4869C6.88404 20.4869 6.88336 20.4869 6.88267 20.4869C6.88198 20.4869 6.88129 20.4869 6.88059 20.4869C6.8799 20.4869 6.8792 20.4869 6.87851 20.4869C6.87781 20.4869 6.87711 20.4869 6.8764 20.4869C6.8757 20.4869 6.87499 20.4869 6.87428 20.4869C6.87357 20.4869 6.87286 20.4869 6.87215 20.4869C6.87143 20.4869 6.87072 20.4869 6.87 20.4869C6.86928 20.4869 6.86855 20.4869 6.86783 20.4869C6.86711 20.4869 6.86638 20.4869 6.86565 20.4869C6.86492 20.4869 6.86419 20.4869 6.86345 20.4869C6.86272 20.4869 6.86198 20.4869 6.86124 20.4869C6.8605 20.4869 6.85976 20.4869 6.85901 20.4869C6.85827 20.4869 6.85752 20.4869 6.85677 20.4869C6.85602 20.4869 6.85527 20.4869 6.85452 20.4869C6.85376 20.4869 6.85301 20.4869 6.85225 20.4869C6.85149 20.4869 6.85072 20.4869 6.84996 20.4869C6.8492 20.4869 6.84843 20.4869 6.84766 20.4869C6.84689 20.4869 6.84612 20.4869 6.84534 20.4869C6.84457 20.4869 6.84379 20.4869 6.84301 20.4869C6.84223 20.4869 6.84145 20.4869 6.84067 20.4869C6.83989 20.4869 6.8391 20.4869 6.83831 20.4869C6.83752 20.4869 6.83673 20.4869 6.83594 20.4869C6.83514 20.4869 6.83435 20.4869 6.83355 20.4869C6.83275 20.4869 6.83195 20.4869 6.83115 20.4869C6.83035 20.4869 6.82954 20.4869 6.82873 20.4869C6.82792 20.4869 6.82711 20.4869 6.8263 20.4869C6.82549 20.4869 6.82468 20.4869 6.82386 20.4869C6.82304 20.4869 6.82222 20.4869 6.8214 20.4869C6.82058 20.4869 6.81975 20.4869 6.81893 20.4869C6.8181 20.4869 6.81727 20.4869 6.81644 20.4869C6.81561 20.4869 6.81478 20.4869 6.81394 20.4869C6.81311 20.4869 6.81227 20.4869 6.81143 20.4869C6.81059 20.4869 6.80975 20.4869 6.8089 20.4869C6.80806 20.4869 6.80721 20.4869 6.80636 20.4869C6.80551 20.4869 6.80466 20.4869 6.80381 20.4869C6.80295 20.4869 6.8021 20.4869 6.80124 20.4869C6.80038 20.4869 6.79952 20.4869 6.79866 20.4869C6.7978 20.4869 6.79693 20.4869 6.79607 20.4869C6.7952 20.4869 6.79433 20.4869 6.79346 20.4869C6.79259 20.4869 6.79171 20.4869 6.79084 20.4869C6.78996 20.4869 6.78909 20.4869 6.78821 20.4869C6.78732 20.4869 6.78644 20.4869 6.78556 20.4869C6.78467 20.4869 6.78379 20.4869 6.7829 20.4869C6.78201 20.4869 6.78112 20.4869 6.78023 20.4869C6.77933 20.4869 6.77844 20.4869 6.77754 20.4869C6.77664 20.4869 6.77574 20.4869 6.77484 20.4869C6.77394 20.4869 6.77304 20.4869 6.77213 20.4869C6.77123 20.4869 6.77032 20.4869 6.76941 20.4869C6.7685 20.4869 6.76759 20.4869 6.76667 20.4869C6.76576 20.4869 6.76484 20.4869 6.76392 20.4869C6.76301 20.4869 6.76209 20.4869 6.76116 20.4869C6.76024 20.4869 6.75932 20.4869 6.75839 20.4869C6.75746 20.4869 6.75654 20.4869 6.75561 20.4869C6.75467 20.4869 6.75374 20.4869 6.75281 20.4869C6.75187 20.4869 6.75094 20.4869 6.75 20.4869C6.74906 20.4869 6.74812 20.4869 6.74718 20.4869C6.74623 20.4869 6.74529 20.4869 6.74434 20.4869C6.7434 20.4869 6.74245 20.4869 6.7415 20.4869C6.74055 20.4869 6.73959 20.4869 6.73864 20.4869C6.73768 20.4869 6.73673 20.4869 6.73577 20.4869C6.73481 20.4869 6.73385 20.4869 6.73289 20.4869C6.73192 20.4869 6.73096 20.4869 6.72999 20.4869C6.72903 20.4869 6.72806 20.4869 6.72709 20.4869C6.72612 20.4869 6.72515 20.4869 6.72417 20.4869C6.7232 20.4869 6.72222 20.4869 6.72124 20.4869C6.72027 20.4869 6.71929 20.4869 6.71831 20.4869C6.71732 20.4869 6.71634 20.4869 6.71536 20.4869C6.71437 20.4869 6.71338 20.4869 6.71239 20.4869C6.7114 20.4869 6.71041 20.4869 6.70942 20.4869C6.70843 20.4869 6.70743 20.4869 6.70644 20.4869C6.70544 20.4869 6.70444 20.4869 6.70344 20.4869C6.70244 20.4869 6.70144 20.4869 6.70043 20.4869C6.69943 20.4869 6.69842 20.4869 6.69742 20.4869C6.69641 20.4869 6.6954 20.4869 6.69439 20.4869C6.69338 20.4869 6.69236 20.4869 6.69135 20.4869C6.69034 20.4869 6.68932 20.4869 6.6883 20.4869C6.68728 20.4869 6.68626 20.4869 6.68524 20.4869C6.68422 20.4869 6.68319 20.4869 6.68217 20.4869C6.68114 20.4869 6.68012 20.4869 6.67909 20.4869C6.67806 20.4869 6.67703 20.4869 6.676 20.4869C6.67496 20.4869 6.67393 20.4869 6.67289 20.4869C6.67186 20.4869 6.67082 20.4869 6.66978 20.4869C6.66874 20.4869 6.6677 20.4869 6.66666 20.4869C6.66561 20.4869 6.66457 20.4869 6.66352 20.4869C6.66248 20.4869 6.66143 20.4869 6.66038 20.4869C6.65933 20.4869 6.65828 20.4869 6.65723 20.4869C6.65617 20.4869 6.65512 20.4869 6.65406 20.4869C6.65301 20.4869 6.65195 20.4869 6.65089 20.4869C6.64983 20.4869 6.64877 20.4869 6.64771 20.4869C6.64664 20.4869 6.64558 20.4869 6.64451 20.4869C6.64345 20.4869 6.64238 20.4869 6.64131 20.4869C6.64024 20.4869 6.63917 20.4869 6.6381 20.4869C6.63702 20.4869 6.63595 20.4869 6.63488 20.4869C6.6338 20.4869 6.63272 20.4869 6.63164 20.4869C6.63056 20.4869 6.62948 20.4869 6.6284 20.4869C6.62732 20.4869 6.62624 20.4869 6.62515 20.4869C6.62407 20.4869 6.62298 20.4869 6.62189 20.4869C6.6208 20.4869 6.61971 20.4869 6.61862 20.4869C6.61753 20.4869 6.61644 20.4869 6.61534 20.4869C6.61425 20.4869 6.61315 20.4869 6.61206 20.4869C6.61096 20.4869 6.60986 20.4869 6.60876 20.4869C6.60766 20.4869 6.60656 20.4869 6.60545 20.4869C6.60435 20.4869 6.60325 20.4869 6.60214 20.4869C6.60103 20.4869 6.59992 20.4869 6.59882 20.4869C6.59771 20.4869 6.5966 20.4869 6.59548 20.4869C6.59437 20.4869 6.59326 20.4869 6.59214 20.4869C6.59103 20.4869 6.58991 20.4869 6.58879 20.4869C6.58767 20.4869 6.58655 20.4869 6.58543 20.4869C6.58431 20.4869 6.58319 20.4869 6.58207 20.4869C6.58094 20.4869 6.57982 20.4869 6.57869 20.4869C6.57756 20.4869 6.57644 20.4869 6.57531 20.4869C6.57418 20.4869 6.57305 20.4869 6.57192 20.4869C6.57078 20.4869 6.56965 20.4869 6.56852 20.4869C6.56738 20.4869 6.56624 20.4869 6.56511 20.4869C6.56397 20.4869 6.56283 20.4869 6.56169 20.4869C6.56055 20.4869 6.55941 20.4869 6.55827 20.4869C6.55712 20.4869 6.55598 20.4869 6.55483 20.4869C6.55369 20.4869 6.55254 20.4869 6.55139 20.4869C6.55024 20.4869 6.54909 20.4869 6.54794 20.4869C6.54679 20.4869 6.54564 20.4869 6.54449 20.4869C6.54333 20.4869 6.54218 20.4869 6.54102 20.4869C6.53987 20.4869 6.53871 20.4869 6.53755 20.4869C6.53639 20.4869 6.53523 20.4869 6.53407 20.4869C6.53291 20.4869 6.53175 20.4869 6.53058 20.4869C6.52942 20.4869 6.52826 20.4869 6.52709 20.4869C6.52592 20.4869 6.52476 20.4869 6.52359 20.4869C6.52242 20.4869 6.52125 20.4869 6.52008 20.4869C6.51891 20.4869 6.51774 20.4869 6.51656 20.4869C6.51539 20.4869 6.51421 20.4869 6.51304 20.4869C6.51186 20.4869 6.51069 20.4869 6.50951 20.4869C6.50833 20.4869 6.50715 20.4869 6.50597 20.4869C6.50479 20.4869 6.50361 20.4869 6.50243 20.4869C6.50124 20.4869 6.50006 20.4869 6.49887 20.4869C6.49769 20.4869 6.4965 20.4869 6.49532 20.4869C6.49413 20.4869 6.49294 20.4869 6.49175 20.4869C6.49056 20.4869 6.48937 20.4869 6.48818 20.4869C6.48699 20.4869 6.48579 20.4869 6.4846 20.4869C6.48341 20.4869 6.48221 20.4869 6.48101 20.4869C6.47982 20.4869 6.47862 20.4869 6.47742 20.4869C6.47622 20.4869 6.47502 20.4869 6.47382 20.4869C6.47262 20.4869 6.47142 20.4869 6.47022 20.4869C6.46902 20.4869 6.46781 20.4869 6.46661 20.4869C6.4654 20.4869 6.4642 20.4869 6.46299 20.4869C6.46178 20.4869 6.46058 20.4869 6.45937 20.4869C6.45816 20.4869 6.45695 20.4869 6.45574 20.4869C6.45453 20.4869 6.45331 20.4869 6.4521 20.4869C6.45089 20.4869 6.44968 20.4869 6.44846 20.4869C6.44725 20.4869 6.44603 20.4869 6.44481 20.4869C6.4436 20.4869 6.44238 20.4869 6.44116 20.4869C6.43994 20.4869 6.43872 20.4869 6.4375 20.4869C6.43628 20.4869 6.43506 20.4869 6.43383 20.4869C6.43261 20.4869 6.43139 20.4869 6.43016 20.4869C6.42894 20.4869 6.42771 20.4869 6.42649 20.4869C6.42526 20.4869 6.42403 20.4869 6.42281 20.4869C6.42158 20.4869 6.42035 20.4869 6.41912 20.4869C6.41789 20.4869 6.41666 20.4869 6.41543 20.4869C6.41419 20.4869 6.41296 20.4869 6.41173 20.4869C6.4105 20.4869 6.40926 20.4869 6.40803 20.4869C6.40679 20.4869 6.40555 20.4869 6.40432 20.4869C6.40308 20.4869 6.40184 20.4869 6.4006 20.4869C6.39937 20.4869 6.39813 20.4869 6.39689 20.4869C6.39565 20.4869 6.3944 20.4869 6.39316 20.4869C6.39192 20.4869 6.39068 20.4869 6.38943 20.4869C6.38819 20.4869 6.38695 20.4869 6.3857 20.4869C6.38446 20.4869 6.38321 20.4869 6.38196 20.4869C6.38072 20.4869 6.37947 20.4869 6.37822 20.4869C6.37697 20.4869 6.37572 20.4869 6.37447 20.4869C6.37322 20.4869 6.37197 20.4869 6.37072 20.4869C6.36947 20.4869 6.36822 20.4869 6.36696 20.4869C6.36571 20.4869 6.36446 20.4869 6.3632 20.4869C6.36195 20.4869 6.36069 20.4869 6.35944 20.4869C6.35818 20.4869 6.35692 20.4869 6.35567 20.4869C6.35441 20.4869 6.35315 20.4869 6.35189 20.4869C6.35064 20.4869 6.34938 20.4869 6.34812 20.4869C6.34686 20.4869 6.34559 20.4869 6.34433 20.4869C6.34307 20.4869 6.34181 20.4869 6.34055 20.4869C6.33928 20.4869 6.33802 20.4869 6.33676 20.4869C6.33549 20.4869 6.33423 20.4869 6.33296 20.4869C6.3317 20.4869 6.33043 20.4869 6.32917 20.4869C6.3279 20.4869 6.32663 20.4869 6.32536 20.4869C6.3241 20.4869 6.32283 20.4869 6.32156 20.4869C6.32029 20.4869 6.31902 20.4869 6.31775 20.4869C6.31648 20.4869 6.31521 20.4869 6.31394 20.4869C6.31266 20.4869 6.31139 20.4869 6.31012 20.4869C6.30885 20.4869 6.30757 20.4869 6.3063 20.4869C6.30503 20.4869 6.30375 20.4869 6.30248 20.4869C6.3012 20.4869 6.29993 20.4869 6.29865 20.4869C6.29738 20.4869 6.2961 20.4869 6.29482 20.4869C6.29354 20.4869 6.29227 20.4869 6.29099 20.4869C6.28971 20.4869 6.28843 20.4869 6.28715 20.4869C6.28587 20.4869 6.28459 20.4869 6.28331 20.4869C6.28203 20.4869 6.28075 20.4869 6.27947 20.4869C6.27819 20.4869 6.27691 20.4869 6.27563 20.4869C6.27435 20.4869 6.27306 20.4869 6.27178 20.4869C6.2705 20.4869 6.26921 20.4869 6.26793 20.4869C6.26665 20.4869 6.26536 20.4869 6.26408 20.4869C6.26279 20.4869 6.26151 20.4869 6.26022 20.4869C6.25894 20.4869 6.25765 20.4869 6.25636 20.4869C6.25508 20.4869 6.25379 20.4869 6.2525 20.4869C6.25121 20.4869 6.24993 20.4869 6.24864 20.4869C6.24735 20.4869 6.24606 20.4869 6.24477 20.4869C6.24348 20.4869 6.24219 20.4869 6.24091 20.4869C6.23962 20.4869 6.23833 20.4869 6.23704 20.4869C6.23574 20.4869 6.23445 20.4869 6.23316 20.4869C6.23187 20.4869 6.23058 20.4869 6.22929 20.4869C6.228 20.4869 6.2267 20.4869 6.22541 20.4869C6.22412 20.4869 6.22283 20.4869 6.22153 20.4869C6.22024 20.4869 6.21895 20.4869 6.21765 20.4869C6.21636 20.4869 6.21507 20.4869 6.21377 20.4869C6.21248 20.4869 6.21118 20.4869 6.20989 20.4869C6.20859 20.4869 6.2073 20.4869 6.206 20.4869C6.20471 20.4869 6.20341 20.4869 6.20211 20.4869C6.20082 20.4869 6.19952 20.4869 6.19823 20.4869C6.19693 20.4869 6.19563 20.4869 6.19434 20.4869C6.19304 20.4869 6.19174 20.4869 6.19044 20.4869C6.18915 20.4869 6.18785 20.4869 6.18655 20.4869C6.18525 20.4869 6.18395 20.4869 6.18266 20.4869C6.18136 20.4869 6.18006 20.4869 6.17876 20.4869C6.17746 20.4869 6.17616 20.4869 6.17486 20.4869C6.17357 20.4869 6.17227 20.4869 6.17097 20.4869C6.16967 20.4869 6.16837 20.4869 6.16707 20.4869C6.16577 20.4869 6.16447 20.4869 6.16317 20.4869C6.16187 20.4869 6.16057 20.4869 6.15927 20.4869C6.15797 20.4869 6.15667 20.4869 6.15537 20.4869C6.15406 20.4869 6.15276 20.4869 6.15146 20.4869C6.15016 20.4869 6.14886 20.4869 6.14756 20.4869C6.14626 20.4869 6.14496 20.4869 6.14366 20.4869C6.14236 20.4869 6.14105 20.4869 6.13975 20.4869C6.13845 20.4869 6.13715 20.4869 6.13585 20.4869C6.13455 20.4869 6.13324 20.4869 6.13194 20.4869C6.13064 20.4869 6.12934 20.4869 6.12804 20.4869C6.12674 20.4869 6.12543 20.4869 6.12413 20.4869C6.12283 20.4869 6.12153 20.4869 6.12023 20.4869C6.11892 20.4869 6.11762 20.4869 6.11632 20.4869C6.11502 20.4869 6.11371 20.4869 6.11241 20.4869C6.11111 20.4869 6.10981 20.4869 6.10851 20.4869C6.1072 20.4869 6.1059 20.4869 6.1046 20.4869C6.1033 20.4869 6.102 20.4869 6.10069 20.4869C6.09939 20.4869 6.09809 20.4869 6.09679 20.4869C6.09549 20.4869 6.09418 20.4869 6.09288 20.4869C6.09158 20.4869 6.09028 20.4869 6.08898 20.4869C6.08768 20.4869 6.08637 20.4869 6.08507 20.4869C6.08377 20.4869 6.08247 20.4869 6.08117 20.4869C6.07987 20.4869 6.07857 20.4869 6.07726 20.4869C6.07596 20.4869 6.07466 20.4869 6.07336 20.4869C6.07206 20.4869 6.07076 20.4869 6.06946 20.4869C6.06816 20.4869 6.06686 20.4869 6.06556 20.4869C6.06426 20.4869 6.06295 20.4869 6.06165 20.4869C6.06035 20.4869 6.05905 20.4869 6.05775 20.4869C6.05645 20.4869 6.05515 20.4869 6.05385 20.4869C6.05255 20.4869 6.05126 20.4869 6.04996 20.4869C6.04866 20.4869 6.04736 20.4869 6.04606 20.4869C6.04476 20.4869 6.04346 20.4869 6.04216 20.4869C6.04086 20.4869 6.03956 20.4869 6.03827 20.4869C6.03697 20.4869 6.03567 20.4869 6.03437 20.4869C6.03308 20.4869 6.03178 20.4869 6.03048 20.4869C6.02918 20.4869 6.02789 20.4869 6.02659 20.4869C6.02529 20.4869 6.024 20.4869 6.0227 20.4869C6.0214 20.4869 6.02011 20.4869 6.01881 20.4869C6.01752 20.4869 6.01622 20.4869 6.01492 20.4869C6.01363 20.4869 6.01233 20.4869 6.01104 20.4869C6.00974 20.4869 6.00845 20.4869 6.00716 20.4869C6.00586 20.4869 6.00457 20.4869 6.00327 20.4869C6.00198 20.4869 6.00069 20.4869 5.99939 20.4869C5.9981 20.4869 5.99681 20.4869 5.99552 20.4869C5.99422 20.4869 5.99293 20.4869 5.99164 20.4869C5.99035 20.4869 5.98906 20.4869 5.98777 20.4869C5.98648 20.4869 5.98519 20.4869 5.9839 20.4869C5.98261 20.4869 5.98132 20.4869 5.98003 20.4869C5.97874 20.4869 5.97745 20.4869 5.97616 20.4869C5.97487 20.4869 5.97358 20.4869 5.97229 20.4869C5.97101 20.4869 5.96972 20.4869 5.96843 20.4869C5.96715 20.4869 5.96586 20.4869 5.96457 20.4869C5.96329 20.4869 5.962 20.4869 5.96072 20.4869C5.95943 20.4869 5.95814 20.4869 5.95686 20.4869C5.95558 20.4869 5.95429 20.4869 5.95301 20.4869C5.95172 20.4869 5.95044 20.4869 5.94916 20.4869C5.94788 20.4869 5.94659 20.4869 5.94531 20.4869C5.94403 20.4869 5.94275 20.4869 5.94147 20.4869C5.94019 20.4869 5.93891 20.4869 5.93763 20.4869C5.93635 20.4869 5.93507 20.4869 5.93379 20.4869C5.93251 20.4869 5.93123 20.4869 5.92995 20.4869C5.92868 20.4869 5.9274 20.4869 5.92612 20.4869C5.92485 20.4869 5.92357 20.4869 5.92229 20.4869C5.92102 20.4869 5.91974 20.4869 5.91847 20.4869C5.91719 20.4869 5.91592 20.4869 5.91465 20.4869C5.91337 20.4869 5.9121 20.4869 5.91083 20.4869C5.90956 20.4869 5.90829 20.4869 5.90701 20.4869C5.90574 20.4869 5.90447 20.4869 5.9032 20.4869C5.90193 20.4869 5.90066 20.4869 5.89939 20.4869C5.89813 20.4869 5.89686 20.4869 5.89559 20.4869C5.89432 20.4869 5.89306 20.4869 5.89179 20.4869C5.89052 20.4869 5.88926 20.4869 5.88799 20.4869C5.88673 20.4869 5.88546 20.4869 5.8842 20.4869C5.88294 20.4869 5.88167 20.4869 5.88041 20.4869C5.87915 20.4869 5.87789 20.4869 5.87663 20.4869C5.87537 20.4869 5.87411 20.4869 5.87285 20.4869C5.87159 20.4869 5.87033 20.4869 5.86907 20.4869C5.86781 20.4869 5.86655 20.4869 5.8653 20.4869C5.86404 20.4869 5.86278 20.4869 5.86153 20.4869C5.86027 20.4869 5.85902 20.4869 5.85776 20.4869C5.85651 20.4869 5.85526 20.4869 5.85401 20.4869C5.85275 20.4869 5.8515 20.4869 5.85025 20.4869C5.849 20.4869 5.84775 20.4869 5.8465 20.4869C5.84525 20.4869 5.844 20.4869 5.84275 20.4869C5.84151 20.4869 5.84026 20.4869 5.83901 20.4869C5.83777 20.4869 5.83652 20.4869 5.83528 20.4869C5.83403 20.4869 5.83279 20.4869 5.83154 20.4869C5.8303 20.4869 5.82906 20.4869 5.82782 20.4869C5.82658 20.4869 5.82534 20.4869 5.8241 20.4869C5.82286 20.4869 5.82162 20.4869 5.82038 20.4869C5.81914 20.4869 5.8179 20.4869 5.81667 20.4869C5.81543 20.4869 5.8142 20.4869 5.81296 20.4869C5.81173 20.4869 5.81049 20.4869 5.80926 20.4869C5.80803 20.4869 5.80679 20.4869 5.80556 20.4869C5.80433 20.4869 5.8031 20.4869 5.80187 20.4869C5.80064 20.4869 5.79941 20.4869 5.79819 20.4869C5.79696 20.4869 5.79573 20.4869 5.79451 20.4869C5.79328 20.4869 5.79206 20.4869 5.79083 20.4869C5.78961 20.4869 5.78839 20.4869 5.78716 20.4869C5.78594 20.4869 5.78472 20.4869 5.7835 20.4869C5.78228 20.4869 5.78106 20.4869 5.77984 20.4869C5.77863 20.4869 5.77741 20.4869 5.77619 20.4869C5.77498 20.4869 5.77376 20.4869 5.77255 20.4869C5.77133 20.4869 5.77012 20.4869 5.76891 20.4869C5.76769 20.4869 5.76648 20.4869 5.76527 20.4869C5.76406 20.4869 5.76285 20.4869 5.76165 20.4869C5.76044 20.4869 5.75923 20.4869 5.75802 20.4869C5.75682 20.4869 5.75561 20.4869 5.75441 20.4869C5.75321 20.4869 5.752 20.4869 5.7508 20.4869C5.7496 20.4869 5.7484 20.4869 5.7472 20.4869C5.746 20.4869 5.7448 20.4869 5.7436 20.4869C5.7424 20.4869 5.74121 20.4869 5.74001 20.4869C5.73882 20.4869 5.73762 20.4869 5.73643 20.4869C5.73524 20.4869 5.73404 20.4869 5.73285 20.4869C5.73166 20.4869 5.73047 20.4869 5.72928 20.4869C5.72809 20.4869 5.72691 20.4869 5.72572 20.4869C5.72453 20.4869 5.72335 20.4869 5.72216 20.4869C5.72098 20.4869 5.7198 20.4869 5.71861 20.4869C5.71743 20.4869 5.71625 20.4869 5.71507 20.4869C5.71389 20.4869 5.71271 20.4869 5.71154 20.4869C5.71036 20.4869 5.70918 20.4869 5.70801 20.4869C5.70683 20.4869 5.70566 20.4869 5.70449 20.4869C5.70331 20.4869 5.70214 20.4869 5.70097 20.4869C5.6998 20.4869 5.69863 20.4869 5.69747 20.4869C5.6963 20.4869 5.69513 20.4869 5.69397 20.4869C5.6928 20.4869 5.69164 20.4869 5.69047 20.4869C5.68931 20.4869 5.68815 20.4869 5.68699 20.4869C5.68583 20.4869 5.68467 20.4869 5.68351 20.4869C5.68236 20.4869 5.6812 20.4869 5.68004 20.4869C5.67889 20.4869 5.67773 20.4869 5.67658 20.4869C5.67543 20.4869 5.67428 20.4869 5.67313 20.4869C5.67198 20.4869 5.67083 20.4869 5.66968 20.4869C5.66853 20.4869 5.66739 20.4869 5.66624 20.4869C5.6651 20.4869 5.66396 20.4869 5.66281 20.4869C5.66167 20.4869 5.66053 20.4869 5.65939 20.4869C5.65825 20.4869 5.65711 20.4869 5.65598 20.4869C5.65484 20.4869 5.65371 20.4869 5.65257 20.4869C5.65144 20.4869 5.65031 20.4869 5.64917 20.4869C5.64804 20.4869 5.64691 20.4869 5.64578 20.4869C5.64466 20.4869 5.64353 20.4869 5.6424 20.4869C5.64128 20.4869 5.64015 20.4869 5.63903 20.4869C5.63791 20.4869 5.63679 20.4869 5.63567 20.4869C5.63455 20.4869 5.63343 20.4869 5.63231 20.4869C5.63119 20.4869 5.63008 20.4869 5.62896 20.4869C5.62785 20.4869 5.62674 20.4869 5.62563 20.4869C5.62452 20.4869 5.62341 20.4869 5.6223 20.4869C5.62119 20.4869 5.62008 20.4869 5.61898 20.4869C5.61787 20.4869 5.61677 20.4869 5.61567 20.4869C5.61456 20.4869 5.61346 20.4869 5.61236 20.4869C5.61126 20.4869 5.61017 20.4869 5.60907 20.4869C5.60797 20.4869 5.60688 20.4869 5.60578 20.4869C5.60469 20.4869 5.6036 20.4869 5.60251 20.4869C5.60142 20.4869 5.60033 20.4869 5.59924 20.4869C5.59816 20.4869 5.59707 20.4869 5.59599 20.4869C5.5949 20.4869 5.59382 20.4869 5.59274 20.4869C5.59166 20.4869 5.59058 20.4869 5.5895 20.4869C5.58842 20.4869 5.58735 20.4869 5.58627 20.4869C5.5852 20.4869 5.58412 20.4869 5.58305 20.4869C5.58198 20.4869 5.58091 20.4869 5.57984 20.4869C5.57877 20.4869 5.57771 20.4869 5.57664 20.4869C5.57558 20.4869 5.57451 20.4869 5.57345 20.4869C5.57239 20.4869 5.57133 20.4869 5.57027 20.4869C5.56921 20.4869 5.56816 20.4869 5.5671 20.4869C5.56605 20.4869 5.56499 20.4869 5.56394 20.4869C5.56289 20.4869 5.56184 20.4869 5.56079 20.4869C5.55974 20.4869 5.5587 20.4869 5.55765 20.4869C5.55661 20.4869 5.55556 20.4869 5.55452 20.4869C5.55348 20.4869 5.55244 20.4869 5.5514 20.4869C5.55036 20.4869 5.54933 20.4869 5.54829 20.4869C5.54726 20.4869 5.54623 20.4869 5.54519 20.4869C5.54416 20.4869 5.54313 20.4869 5.54211 20.4869C5.54108 20.4869 5.54005 20.4869 5.53903 20.4869C5.538 20.4869 5.53698 20.4869 5.53596 20.4869C5.53494 20.4869 5.53392 20.4869 5.5329 20.4869C5.53189 20.4869 5.53087 20.4869 5.52986 20.4869C5.52884 20.4869 5.52783 20.4869 5.52682 20.4869C5.52581 20.4869 5.5248 20.4869 5.5238 20.4869C5.52279 20.4869 5.52179 20.4869 5.52078 20.4869C5.51978 20.4869 5.51878 20.4869 5.51778 20.4869C5.51678 20.4869 5.51578 20.4869 5.51479 20.4869C5.51379 20.4869 5.5128 20.4869 5.51181 20.4869C5.51082 20.4869 5.50983 20.4869 5.50884 20.4869C5.50785 20.4869 5.50687 20.4869 5.50588 20.4869C5.5049 20.4869 5.50391 20.4869 5.50293 20.4869C5.50195 20.4869 5.50098 20.4869 5.5 20.4869V17.4869C5.50098 17.4869 5.50195 17.4869 5.50293 17.4869C5.50391 17.4869 5.5049 17.4869 5.50588 17.4869C5.50687 17.4869 5.50785 17.4869 5.50884 17.4869C5.50983 17.4869 5.51082 17.4869 5.51181 17.4869C5.5128 17.4869 5.51379 17.4869 5.51479 17.4869C5.51578 17.4869 5.51678 17.4869 5.51778 17.4869C5.51878 17.4869 5.51978 17.4869 5.52078 17.4869C5.52179 17.4869 5.52279 17.4869 5.5238 17.4869C5.5248 17.4869 5.52581 17.4869 5.52682 17.4869C5.52783 17.4869 5.52884 17.4869 5.52986 17.4869C5.53087 17.4869 5.53189 17.4869 5.5329 17.4869C5.53392 17.4869 5.53494 17.4869 5.53596 17.4869C5.53698 17.4869 5.538 17.4869 5.53903 17.4869C5.54005 17.4869 5.54108 17.4869 5.54211 17.4869C5.54313 17.4869 5.54416 17.4869 5.54519 17.4869C5.54623 17.4869 5.54726 17.4869 5.54829 17.4869C5.54933 17.4869 5.55036 17.4869 5.5514 17.4869C5.55244 17.4869 5.55348 17.4869 5.55452 17.4869C5.55556 17.4869 5.55661 17.4869 5.55765 17.4869C5.5587 17.4869 5.55974 17.4869 5.56079 17.4869C5.56184 17.4869 5.56289 17.4869 5.56394 17.4869C5.56499 17.4869 5.56605 17.4869 5.5671 17.4869C5.56816 17.4869 5.56921 17.4869 5.57027 17.4869C5.57133 17.4869 5.57239 17.4869 5.57345 17.4869C5.57451 17.4869 5.57558 17.4869 5.57664 17.4869C5.57771 17.4869 5.57877 17.4869 5.57984 17.4869C5.58091 17.4869 5.58198 17.4869 5.58305 17.4869C5.58412 17.4869 5.5852 17.4869 5.58627 17.4869C5.58735 17.4869 5.58842 17.4869 5.5895 17.4869C5.59058 17.4869 5.59166 17.4869 5.59274 17.4869C5.59382 17.4869 5.5949 17.4869 5.59599 17.4869C5.59707 17.4869 5.59816 17.4869 5.59924 17.4869C5.60033 17.4869 5.60142 17.4869 5.60251 17.4869C5.6036 17.4869 5.60469 17.4869 5.60578 17.4869C5.60688 17.4869 5.60797 17.4869 5.60907 17.4869C5.61017 17.4869 5.61126 17.4869 5.61236 17.4869C5.61346 17.4869 5.61456 17.4869 5.61567 17.4869C5.61677 17.4869 5.61787 17.4869 5.61898 17.4869C5.62008 17.4869 5.62119 17.4869 5.6223 17.4869C5.62341 17.4869 5.62452 17.4869 5.62563 17.4869C5.62674 17.4869 5.62785 17.4869 5.62896 17.4869C5.63008 17.4869 5.63119 17.4869 5.63231 17.4869C5.63343 17.4869 5.63455 17.4869 5.63567 17.4869C5.63679 17.4869 5.63791 17.4869 5.63903 17.4869C5.64015 17.4869 5.64128 17.4869 5.6424 17.4869C5.64353 17.4869 5.64466 17.4869 5.64578 17.4869C5.64691 17.4869 5.64804 17.4869 5.64917 17.4869C5.65031 17.4869 5.65144 17.4869 5.65257 17.4869C5.65371 17.4869 5.65484 17.4869 5.65598 17.4869C5.65711 17.4869 5.65825 17.4869 5.65939 17.4869C5.66053 17.4869 5.66167 17.4869 5.66281 17.4869C5.66396 17.4869 5.6651 17.4869 5.66624 17.4869C5.66739 17.4869 5.66853 17.4869 5.66968 17.4869C5.67083 17.4869 5.67198 17.4869 5.67313 17.4869C5.67428 17.4869 5.67543 17.4869 5.67658 17.4869C5.67773 17.4869 5.67889 17.4869 5.68004 17.4869C5.6812 17.4869 5.68236 17.4869 5.68351 17.4869C5.68467 17.4869 5.68583 17.4869 5.68699 17.4869C5.68815 17.4869 5.68931 17.4869 5.69047 17.4869C5.69164 17.4869 5.6928 17.4869 5.69397 17.4869C5.69513 17.4869 5.6963 17.4869 5.69747 17.4869C5.69863 17.4869 5.6998 17.4869 5.70097 17.4869C5.70214 17.4869 5.70331 17.4869 5.70449 17.4869C5.70566 17.4869 5.70683 17.4869 5.70801 17.4869C5.70918 17.4869 5.71036 17.4869 5.71154 17.4869C5.71271 17.4869 5.71389 17.4869 5.71507 17.4869C5.71625 17.4869 5.71743 17.4869 5.71861 17.4869C5.7198 17.4869 5.72098 17.4869 5.72216 17.4869C5.72335 17.4869 5.72453 17.4869 5.72572 17.4869C5.72691 17.4869 5.72809 17.4869 5.72928 17.4869C5.73047 17.4869 5.73166 17.4869 5.73285 17.4869C5.73404 17.4869 5.73524 17.4869 5.73643 17.4869C5.73762 17.4869 5.73882 17.4869 5.74001 17.4869C5.74121 17.4869 5.7424 17.4869 5.7436 17.4869C5.7448 17.4869 5.746 17.4869 5.7472 17.4869C5.7484 17.4869 5.7496 17.4869 5.7508 17.4869C5.752 17.4869 5.75321 17.4869 5.75441 17.4869C5.75561 17.4869 5.75682 17.4869 5.75802 17.4869C5.75923 17.4869 5.76044 17.4869 5.76165 17.4869C5.76285 17.4869 5.76406 17.4869 5.76527 17.4869C5.76648 17.4869 5.76769 17.4869 5.76891 17.4869C5.77012 17.4869 5.77133 17.4869 5.77255 17.4869C5.77376 17.4869 5.77498 17.4869 5.77619 17.4869C5.77741 17.4869 5.77863 17.4869 5.77984 17.4869C5.78106 17.4869 5.78228 17.4869 5.7835 17.4869C5.78472 17.4869 5.78594 17.4869 5.78716 17.4869C5.78839 17.4869 5.78961 17.4869 5.79083 17.4869C5.79206 17.4869 5.79328 17.4869 5.79451 17.4869C5.79573 17.4869 5.79696 17.4869 5.79819 17.4869C5.79941 17.4869 5.80064 17.4869 5.80187 17.4869C5.8031 17.4869 5.80433 17.4869 5.80556 17.4869C5.80679 17.4869 5.80803 17.4869 5.80926 17.4869C5.81049 17.4869 5.81173 17.4869 5.81296 17.4869C5.8142 17.4869 5.81543 17.4869 5.81667 17.4869C5.8179 17.4869 5.81914 17.4869 5.82038 17.4869C5.82162 17.4869 5.82286 17.4869 5.8241 17.4869C5.82534 17.4869 5.82658 17.4869 5.82782 17.4869C5.82906 17.4869 5.8303 17.4869 5.83154 17.4869C5.83279 17.4869 5.83403 17.4869 5.83528 17.4869C5.83652 17.4869 5.83777 17.4869 5.83901 17.4869C5.84026 17.4869 5.84151 17.4869 5.84275 17.4869C5.844 17.4869 5.84525 17.4869 5.8465 17.4869C5.84775 17.4869 5.849 17.4869 5.85025 17.4869C5.8515 17.4869 5.85275 17.4869 5.85401 17.4869C5.85526 17.4869 5.85651 17.4869 5.85776 17.4869C5.85902 17.4869 5.86027 17.4869 5.86153 17.4869C5.86278 17.4869 5.86404 17.4869 5.8653 17.4869C5.86655 17.4869 5.86781 17.4869 5.86907 17.4869C5.87033 17.4869 5.87159 17.4869 5.87285 17.4869C5.87411 17.4869 5.87537 17.4869 5.87663 17.4869C5.87789 17.4869 5.87915 17.4869 5.88041 17.4869C5.88167 17.4869 5.88294 17.4869 5.8842 17.4869C5.88546 17.4869 5.88673 17.4869 5.88799 17.4869C5.88926 17.4869 5.89052 17.4869 5.89179 17.4869C5.89306 17.4869 5.89432 17.4869 5.89559 17.4869C5.89686 17.4869 5.89813 17.4869 5.89939 17.4869C5.90066 17.4869 5.90193 17.4869 5.9032 17.4869C5.90447 17.4869 5.90574 17.4869 5.90701 17.4869C5.90829 17.4869 5.90956 17.4869 5.91083 17.4869C5.9121 17.4869 5.91337 17.4869 5.91465 17.4869C5.91592 17.4869 5.91719 17.4869 5.91847 17.4869C5.91974 17.4869 5.92102 17.4869 5.92229 17.4869C5.92357 17.4869 5.92485 17.4869 5.92612 17.4869C5.9274 17.4869 5.92868 17.4869 5.92995 17.4869C5.93123 17.4869 5.93251 17.4869 5.93379 17.4869C5.93507 17.4869 5.93635 17.4869 5.93763 17.4869C5.93891 17.4869 5.94019 17.4869 5.94147 17.4869C5.94275 17.4869 5.94403 17.4869 5.94531 17.4869C5.94659 17.4869 5.94788 17.4869 5.94916 17.4869C5.95044 17.4869 5.95172 17.4869 5.95301 17.4869C5.95429 17.4869 5.95558 17.4869 5.95686 17.4869C5.95814 17.4869 5.95943 17.4869 5.96072 17.4869C5.962 17.4869 5.96329 17.4869 5.96457 17.4869C5.96586 17.4869 5.96715 17.4869 5.96843 17.4869C5.96972 17.4869 5.97101 17.4869 5.97229 17.4869C5.97358 17.4869 5.97487 17.4869 5.97616 17.4869C5.97745 17.4869 5.97874 17.4869 5.98003 17.4869C5.98132 17.4869 5.98261 17.4869 5.9839 17.4869C5.98519 17.4869 5.98648 17.4869 5.98777 17.4869C5.98906 17.4869 5.99035 17.4869 5.99164 17.4869C5.99293 17.4869 5.99422 17.4869 5.99552 17.4869C5.99681 17.4869 5.9981 17.4869 5.99939 17.4869C6.00069 17.4869 6.00198 17.4869 6.00327 17.4869C6.00457 17.4869 6.00586 17.4869 6.00716 17.4869C6.00845 17.4869 6.00974 17.4869 6.01104 17.4869C6.01233 17.4869 6.01363 17.4869 6.01492 17.4869C6.01622 17.4869 6.01752 17.4869 6.01881 17.4869C6.02011 17.4869 6.0214 17.4869 6.0227 17.4869C6.024 17.4869 6.02529 17.4869 6.02659 17.4869C6.02789 17.4869 6.02918 17.4869 6.03048 17.4869C6.03178 17.4869 6.03308 17.4869 6.03437 17.4869C6.03567 17.4869 6.03697 17.4869 6.03827 17.4869C6.03956 17.4869 6.04086 17.4869 6.04216 17.4869C6.04346 17.4869 6.04476 17.4869 6.04606 17.4869C6.04736 17.4869 6.04866 17.4869 6.04996 17.4869C6.05126 17.4869 6.05255 17.4869 6.05385 17.4869C6.05515 17.4869 6.05645 17.4869 6.05775 17.4869C6.05905 17.4869 6.06035 17.4869 6.06165 17.4869C6.06295 17.4869 6.06426 17.4869 6.06556 17.4869C6.06686 17.4869 6.06816 17.4869 6.06946 17.4869C6.07076 17.4869 6.07206 17.4869 6.07336 17.4869C6.07466 17.4869 6.07596 17.4869 6.07726 17.4869C6.07857 17.4869 6.07987 17.4869 6.08117 17.4869C6.08247 17.4869 6.08377 17.4869 6.08507 17.4869C6.08637 17.4869 6.08768 17.4869 6.08898 17.4869C6.09028 17.4869 6.09158 17.4869 6.09288 17.4869C6.09418 17.4869 6.09549 17.4869 6.09679 17.4869C6.09809 17.4869 6.09939 17.4869 6.10069 17.4869C6.102 17.4869 6.1033 17.4869 6.1046 17.4869C6.1059 17.4869 6.1072 17.4869 6.10851 17.4869C6.10981 17.4869 6.11111 17.4869 6.11241 17.4869C6.11371 17.4869 6.11502 17.4869 6.11632 17.4869C6.11762 17.4869 6.11892 17.4869 6.12023 17.4869C6.12153 17.4869 6.12283 17.4869 6.12413 17.4869C6.12543 17.4869 6.12674 17.4869 6.12804 17.4869C6.12934 17.4869 6.13064 17.4869 6.13194 17.4869C6.13324 17.4869 6.13455 17.4869 6.13585 17.4869C6.13715 17.4869 6.13845 17.4869 6.13975 17.4869C6.14105 17.4869 6.14236 17.4869 6.14366 17.4869C6.14496 17.4869 6.14626 17.4869 6.14756 17.4869C6.14886 17.4869 6.15016 17.4869 6.15146 17.4869C6.15276 17.4869 6.15406 17.4869 6.15537 17.4869C6.15667 17.4869 6.15797 17.4869 6.15927 17.4869C6.16057 17.4869 6.16187 17.4869 6.16317 17.4869C6.16447 17.4869 6.16577 17.4869 6.16707 17.4869C6.16837 17.4869 6.16967 17.4869 6.17097 17.4869C6.17227 17.4869 6.17357 17.4869 6.17486 17.4869C6.17616 17.4869 6.17746 17.4869 6.17876 17.4869C6.18006 17.4869 6.18136 17.4869 6.18266 17.4869C6.18395 17.4869 6.18525 17.4869 6.18655 17.4869C6.18785 17.4869 6.18915 17.4869 6.19044 17.4869C6.19174 17.4869 6.19304 17.4869 6.19434 17.4869C6.19563 17.4869 6.19693 17.4869 6.19823 17.4869C6.19952 17.4869 6.20082 17.4869 6.20211 17.4869C6.20341 17.4869 6.20471 17.4869 6.206 17.4869C6.2073 17.4869 6.20859 17.4869 6.20989 17.4869C6.21118 17.4869 6.21248 17.4869 6.21377 17.4869C6.21507 17.4869 6.21636 17.4869 6.21765 17.4869C6.21895 17.4869 6.22024 17.4869 6.22153 17.4869C6.22283 17.4869 6.22412 17.4869 6.22541 17.4869C6.2267 17.4869 6.228 17.4869 6.22929 17.4869C6.23058 17.4869 6.23187 17.4869 6.23316 17.4869C6.23445 17.4869 6.23574 17.4869 6.23704 17.4869C6.23833 17.4869 6.23962 17.4869 6.24091 17.4869C6.24219 17.4869 6.24348 17.4869 6.24477 17.4869C6.24606 17.4869 6.24735 17.4869 6.24864 17.4869C6.24993 17.4869 6.25121 17.4869 6.2525 17.4869C6.25379 17.4869 6.25508 17.4869 6.25636 17.4869C6.25765 17.4869 6.25894 17.4869 6.26022 17.4869C6.26151 17.4869 6.26279 17.4869 6.26408 17.4869C6.26536 17.4869 6.26665 17.4869 6.26793 17.4869C6.26921 17.4869 6.2705 17.4869 6.27178 17.4869C6.27306 17.4869 6.27435 17.4869 6.27563 17.4869C6.27691 17.4869 6.27819 17.4869 6.27947 17.4869C6.28075 17.4869 6.28203 17.4869 6.28331 17.4869C6.28459 17.4869 6.28587 17.4869 6.28715 17.4869C6.28843 17.4869 6.28971 17.4869 6.29099 17.4869C6.29227 17.4869 6.29354 17.4869 6.29482 17.4869C6.2961 17.4869 6.29738 17.4869 6.29865 17.4869C6.29993 17.4869 6.3012 17.4869 6.30248 17.4869C6.30375 17.4869 6.30503 17.4869 6.3063 17.4869C6.30757 17.4869 6.30885 17.4869 6.31012 17.4869C6.31139 17.4869 6.31266 17.4869 6.31394 17.4869C6.31521 17.4869 6.31648 17.4869 6.31775 17.4869C6.31902 17.4869 6.32029 17.4869 6.32156 17.4869C6.32283 17.4869 6.3241 17.4869 6.32536 17.4869C6.32663 17.4869 6.3279 17.4869 6.32917 17.4869C6.33043 17.4869 6.3317 17.4869 6.33296 17.4869C6.33423 17.4869 6.33549 17.4869 6.33676 17.4869C6.33802 17.4869 6.33928 17.4869 6.34055 17.4869C6.34181 17.4869 6.34307 17.4869 6.34433 17.4869C6.34559 17.4869 6.34686 17.4869 6.34812 17.4869C6.34938 17.4869 6.35064 17.4869 6.35189 17.4869C6.35315 17.4869 6.35441 17.4869 6.35567 17.4869C6.35692 17.4869 6.35818 17.4869 6.35944 17.4869C6.36069 17.4869 6.36195 17.4869 6.3632 17.4869C6.36446 17.4869 6.36571 17.4869 6.36696 17.4869C6.36822 17.4869 6.36947 17.4869 6.37072 17.4869C6.37197 17.4869 6.37322 17.4869 6.37447 17.4869C6.37572 17.4869 6.37697 17.4869 6.37822 17.4869C6.37947 17.4869 6.38072 17.4869 6.38196 17.4869C6.38321 17.4869 6.38446 17.4869 6.3857 17.4869C6.38695 17.4869 6.38819 17.4869 6.38943 17.4869C6.39068 17.4869 6.39192 17.4869 6.39316 17.4869C6.3944 17.4869 6.39565 17.4869 6.39689 17.4869C6.39813 17.4869 6.39937 17.4869 6.4006 17.4869C6.40184 17.4869 6.40308 17.4869 6.40432 17.4869C6.40555 17.4869 6.40679 17.4869 6.40803 17.4869C6.40926 17.4869 6.4105 17.4869 6.41173 17.4869C6.41296 17.4869 6.41419 17.4869 6.41543 17.4869C6.41666 17.4869 6.41789 17.4869 6.41912 17.4869C6.42035 17.4869 6.42158 17.4869 6.42281 17.4869C6.42403 17.4869 6.42526 17.4869 6.42649 17.4869C6.42771 17.4869 6.42894 17.4869 6.43016 17.4869C6.43139 17.4869 6.43261 17.4869 6.43383 17.4869C6.43506 17.4869 6.43628 17.4869 6.4375 17.4869C6.43872 17.4869 6.43994 17.4869 6.44116 17.4869C6.44238 17.4869 6.4436 17.4869 6.44481 17.4869C6.44603 17.4869 6.44725 17.4869 6.44846 17.4869C6.44968 17.4869 6.45089 17.4869 6.4521 17.4869C6.45331 17.4869 6.45453 17.4869 6.45574 17.4869C6.45695 17.4869 6.45816 17.4869 6.45937 17.4869C6.46058 17.4869 6.46178 17.4869 6.46299 17.4869C6.4642 17.4869 6.4654 17.4869 6.46661 17.4869C6.46781 17.4869 6.46902 17.4869 6.47022 17.4869C6.47142 17.4869 6.47262 17.4869 6.47382 17.4869C6.47502 17.4869 6.47622 17.4869 6.47742 17.4869C6.47862 17.4869 6.47982 17.4869 6.48101 17.4869C6.48221 17.4869 6.48341 17.4869 6.4846 17.4869C6.48579 17.4869 6.48699 17.4869 6.48818 17.4869C6.48937 17.4869 6.49056 17.4869 6.49175 17.4869C6.49294 17.4869 6.49413 17.4869 6.49532 17.4869C6.4965 17.4869 6.49769 17.4869 6.49887 17.4869C6.50006 17.4869 6.50124 17.4869 6.50243 17.4869C6.50361 17.4869 6.50479 17.4869 6.50597 17.4869C6.50715 17.4869 6.50833 17.4869 6.50951 17.4869C6.51069 17.4869 6.51186 17.4869 6.51304 17.4869C6.51421 17.4869 6.51539 17.4869 6.51656 17.4869C6.51774 17.4869 6.51891 17.4869 6.52008 17.4869C6.52125 17.4869 6.52242 17.4869 6.52359 17.4869C6.52476 17.4869 6.52592 17.4869 6.52709 17.4869C6.52826 17.4869 6.52942 17.4869 6.53058 17.4869C6.53175 17.4869 6.53291 17.4869 6.53407 17.4869C6.53523 17.4869 6.53639 17.4869 6.53755 17.4869C6.53871 17.4869 6.53987 17.4869 6.54102 17.4869C6.54218 17.4869 6.54333 17.4869 6.54449 17.4869C6.54564 17.4869 6.54679 17.4869 6.54794 17.4869C6.54909 17.4869 6.55024 17.4869 6.55139 17.4869C6.55254 17.4869 6.55369 17.4869 6.55483 17.4869C6.55598 17.4869 6.55712 17.4869 6.55827 17.4869C6.55941 17.4869 6.56055 17.4869 6.56169 17.4869C6.56283 17.4869 6.56397 17.4869 6.56511 17.4869C6.56624 17.4869 6.56738 17.4869 6.56852 17.4869C6.56965 17.4869 6.57078 17.4869 6.57192 17.4869C6.57305 17.4869 6.57418 17.4869 6.57531 17.4869C6.57644 17.4869 6.57756 17.4869 6.57869 17.4869C6.57982 17.4869 6.58094 17.4869 6.58207 17.4869C6.58319 17.4869 6.58431 17.4869 6.58543 17.4869C6.58655 17.4869 6.58767 17.4869 6.58879 17.4869C6.58991 17.4869 6.59103 17.4869 6.59214 17.4869C6.59326 17.4869 6.59437 17.4869 6.59548 17.4869C6.5966 17.4869 6.59771 17.4869 6.59882 17.4869C6.59992 17.4869 6.60103 17.4869 6.60214 17.4869C6.60325 17.4869 6.60435 17.4869 6.60545 17.4869C6.60656 17.4869 6.60766 17.4869 6.60876 17.4869C6.60986 17.4869 6.61096 17.4869 6.61206 17.4869C6.61315 17.4869 6.61425 17.4869 6.61534 17.4869C6.61644 17.4869 6.61753 17.4869 6.61862 17.4869C6.61971 17.4869 6.6208 17.4869 6.62189 17.4869C6.62298 17.4869 6.62407 17.4869 6.62515 17.4869C6.62624 17.4869 6.62732 17.4869 6.6284 17.4869C6.62948 17.4869 6.63056 17.4869 6.63164 17.4869C6.63272 17.4869 6.6338 17.4869 6.63488 17.4869C6.63595 17.4869 6.63702 17.4869 6.6381 17.4869C6.63917 17.4869 6.64024 17.4869 6.64131 17.4869C6.64238 17.4869 6.64345 17.4869 6.64451 17.4869C6.64558 17.4869 6.64664 17.4869 6.64771 17.4869C6.64877 17.4869 6.64983 17.4869 6.65089 17.4869C6.65195 17.4869 6.65301 17.4869 6.65406 17.4869C6.65512 17.4869 6.65617 17.4869 6.65723 17.4869C6.65828 17.4869 6.65933 17.4869 6.66038 17.4869C6.66143 17.4869 6.66248 17.4869 6.66352 17.4869C6.66457 17.4869 6.66561 17.4869 6.66666 17.4869C6.6677 17.4869 6.66874 17.4869 6.66978 17.4869C6.67082 17.4869 6.67186 17.4869 6.67289 17.4869C6.67393 17.4869 6.67496 17.4869 6.676 17.4869C6.67703 17.4869 6.67806 17.4869 6.67909 17.4869C6.68012 17.4869 6.68114 17.4869 6.68217 17.4869C6.68319 17.4869 6.68422 17.4869 6.68524 17.4869C6.68626 17.4869 6.68728 17.4869 6.6883 17.4869C6.68932 17.4869 6.69034 17.4869 6.69135 17.4869C6.69236 17.4869 6.69338 17.4869 6.69439 17.4869C6.6954 17.4869 6.69641 17.4869 6.69742 17.4869C6.69842 17.4869 6.69943 17.4869 6.70043 17.4869C6.70144 17.4869 6.70244 17.4869 6.70344 17.4869C6.70444 17.4869 6.70544 17.4869 6.70644 17.4869C6.70743 17.4869 6.70843 17.4869 6.70942 17.4869C6.71041 17.4869 6.7114 17.4869 6.71239 17.4869C6.71338 17.4869 6.71437 17.4869 6.71536 17.4869C6.71634 17.4869 6.71732 17.4869 6.71831 17.4869C6.71929 17.4869 6.72027 17.4869 6.72124 17.4869C6.72222 17.4869 6.7232 17.4869 6.72417 17.4869C6.72515 17.4869 6.72612 17.4869 6.72709 17.4869C6.72806 17.4869 6.72903 17.4869 6.72999 17.4869C6.73096 17.4869 6.73192 17.4869 6.73289 17.4869C6.73385 17.4869 6.73481 17.4869 6.73577 17.4869C6.73673 17.4869 6.73768 17.4869 6.73864 17.4869C6.73959 17.4869 6.74055 17.4869 6.7415 17.4869C6.74245 17.4869 6.7434 17.4869 6.74434 17.4869C6.74529 17.4869 6.74623 17.4869 6.74718 17.4869C6.74812 17.4869 6.74906 17.4869 6.75 17.4869C6.75094 17.4869 6.75187 17.4869 6.75281 17.4869C6.75374 17.4869 6.75467 17.4869 6.75561 17.4869C6.75654 17.4869 6.75746 17.4869 6.75839 17.4869C6.75932 17.4869 6.76024 17.4869 6.76116 17.4869C6.76209 17.4869 6.76301 17.4869 6.76392 17.4869C6.76484 17.4869 6.76576 17.4869 6.76667 17.4869C6.76759 17.4869 6.7685 17.4869 6.76941 17.4869C6.77032 17.4869 6.77123 17.4869 6.77213 17.4869C6.77304 17.4869 6.77394 17.4869 6.77484 17.4869C6.77574 17.4869 6.77664 17.4869 6.77754 17.4869C6.77844 17.4869 6.77933 17.4869 6.78023 17.4869C6.78112 17.4869 6.78201 17.4869 6.7829 17.4869C6.78379 17.4869 6.78467 17.4869 6.78556 17.4869C6.78644 17.4869 6.78732 17.4869 6.78821 17.4869C6.78909 17.4869 6.78996 17.4869 6.79084 17.4869C6.79171 17.4869 6.79259 17.4869 6.79346 17.4869C6.79433 17.4869 6.7952 17.4869 6.79607 17.4869C6.79693 17.4869 6.7978 17.4869 6.79866 17.4869C6.79952 17.4869 6.80038 17.4869 6.80124 17.4869C6.8021 17.4869 6.80295 17.4869 6.80381 17.4869C6.80466 17.4869 6.80551 17.4869 6.80636 17.4869C6.80721 17.4869 6.80806 17.4869 6.8089 17.4869C6.80975 17.4869 6.81059 17.4869 6.81143 17.4869C6.81227 17.4869 6.81311 17.4869 6.81394 17.4869C6.81478 17.4869 6.81561 17.4869 6.81644 17.4869C6.81727 17.4869 6.8181 17.4869 6.81893 17.4869C6.81975 17.4869 6.82058 17.4869 6.8214 17.4869C6.82222 17.4869 6.82304 17.4869 6.82386 17.4869C6.82468 17.4869 6.82549 17.4869 6.8263 17.4869C6.82711 17.4869 6.82792 17.4869 6.82873 17.4869C6.82954 17.4869 6.83035 17.4869 6.83115 17.4869C6.83195 17.4869 6.83275 17.4869 6.83355 17.4869C6.83435 17.4869 6.83514 17.4869 6.83594 17.4869C6.83673 17.4869 6.83752 17.4869 6.83831 17.4869C6.8391 17.4869 6.83989 17.4869 6.84067 17.4869C6.84145 17.4869 6.84223 17.4869 6.84301 17.4869C6.84379 17.4869 6.84457 17.4869 6.84534 17.4869C6.84612 17.4869 6.84689 17.4869 6.84766 17.4869C6.84843 17.4869 6.8492 17.4869 6.84996 17.4869C6.85072 17.4869 6.85149 17.4869 6.85225 17.4869C6.85301 17.4869 6.85376 17.4869 6.85452 17.4869C6.85527 17.4869 6.85602 17.4869 6.85677 17.4869C6.85752 17.4869 6.85827 17.4869 6.85901 17.4869C6.85976 17.4869 6.8605 17.4869 6.86124 17.4869C6.86198 17.4869 6.86272 17.4869 6.86345 17.4869C6.86419 17.4869 6.86492 17.4869 6.86565 17.4869C6.86638 17.4869 6.86711 17.4869 6.86783 17.4869C6.86855 17.4869 6.86928 17.4869 6.87 17.4869C6.87072 17.4869 6.87143 17.4869 6.87215 17.4869C6.87286 17.4869 6.87357 17.4869 6.87428 17.4869C6.87499 17.4869 6.8757 17.4869 6.8764 17.4869C6.87711 17.4869 6.87781 17.4869 6.87851 17.4869C6.8792 17.4869 6.8799 17.4869 6.88059 17.4869C6.88129 17.4869 6.88198 17.4869 6.88267 17.4869C6.88336 17.4869 6.88404 17.4869 6.88472 17.4869C6.88541 17.4869 6.88609 17.4869 6.88677 17.4869C6.88744 17.4869 6.88812 17.4869 6.88879 17.4869C6.88946 17.4869 6.89013 17.4869 6.8908 17.4869C6.89147 17.4869 6.89213 17.4869 6.8928 17.4869C6.89346 17.4869 6.89412 17.4869 6.89477 17.4869C6.89543 17.4869 6.89608 17.4869 6.89673 17.4869C6.89739 17.4869 6.89803 17.4869 6.89868 17.4869C6.89933 17.4869 6.89997 17.4869 6.90061 17.4869C6.90125 17.4869 6.90189 17.4869 6.90252 17.4869C6.90316 17.4869 6.90379 17.4869 6.90442 17.4869C6.90505 17.4869 6.90568 17.4869 6.9063 17.4869C6.90692 17.4869 6.90754 17.4869 6.90816 17.4869C6.90878 17.4869 6.9094 17.4869 6.91001 17.4869C6.91062 17.4869 6.91123 17.4869 6.91184 17.4869C6.91245 17.4869 6.91305 17.4869 6.91365 17.4869C6.91426 17.4869 6.91485 17.4869 6.91545 17.4869C6.91605 17.4869 6.91664 17.4869 6.91723 17.4869C6.91782 17.4869 6.91841 17.4869 6.91899 17.4869C6.91958 17.4869 6.92016 17.4869 6.92074 17.4869C6.92132 17.4869 6.92189 17.4869 6.92247 17.4869C6.92304 17.4869 6.92361 17.4869 6.92418 17.4869C6.92475 17.4869 6.92531 17.4869 6.92587 17.4869C6.92644 17.4869 6.927 17.4869 6.92755 17.4869C6.92811 17.4869 6.92866 17.4869 6.92921 17.4869C6.92976 17.4869 6.93031 17.4869 6.93085 17.4869C6.9314 17.4869 6.93194 17.4869 6.93248 17.4869C6.93302 17.4869 6.93355 17.4869 6.93409 17.4869C6.93462 17.4869 6.93515 17.4869 6.93568 17.4869C6.9362 17.4869 6.93673 17.4869 6.93725 17.4869C6.93777 17.4869 6.93829 17.4869 6.9388 17.4869C6.93932 17.4869 6.93983 17.4869 6.94034 17.4869C6.94085 17.4869 6.94136 17.4869 6.94186 17.4869C6.94236 17.4869 6.94286 17.4869 6.94336 17.4869C6.94386 17.4869 6.94435 17.4869 6.94485 17.4869C6.94534 17.4869 6.94582 17.4869 6.94631 17.4869C6.9468 17.4869 6.94728 17.4869 6.94776 17.4869C6.94824 17.4869 6.94871 17.4869 6.94919 17.4869C6.94966 17.4869 6.95013 17.4869 6.9506 17.4869C6.95106 17.4869 6.95153 17.4869 6.95199 17.4869C6.95245 17.4869 6.95291 17.4869 6.95336 17.4869C6.95382 17.4869 6.95427 17.4869 6.95472 17.4869C6.95517 17.4869 6.95561 17.4869 6.95605 17.4869C6.9565 17.4869 6.95694 17.4869 6.95737 17.4869C6.95781 17.4869 6.95824 17.4869 6.95867 17.4869C6.9591 17.4869 6.95953 17.4869 6.95995 17.4869C6.96038 17.4869 6.9608 17.4869 6.96122 17.4869C6.96163 17.4869 6.96205 17.4869 6.96246 17.4869C6.96287 17.4869 6.96328 17.4869 6.96368 17.4869C6.96409 17.4869 6.96449 17.4869 6.96489 17.4869C6.96529 17.4869 6.96568 17.4869 6.96607 17.4869C6.96647 17.4869 6.96686 17.4869 6.96724 17.4869C6.96763 17.4869 6.96801 17.4869 6.96839 17.4869C6.96877 17.4869 6.96914 17.4869 6.96952 17.4869C6.96989 17.4869 6.97026 17.4869 6.97063 17.4869C6.97099 17.4869 6.97136 17.4869 6.97172 17.4869C6.97208 17.4869 6.97243 17.4869 6.97279 17.4869C6.97314 17.4869 6.97349 17.4869 6.97384 17.4869C6.97418 17.4869 6.97453 17.4869 6.97487 17.4869C6.97521 17.4869 6.97555 17.4869 6.97588 17.4869C6.97621 17.4869 6.97654 17.4869 6.97687 17.4869C6.9772 17.4869 6.97752 17.4869 6.97784 17.4869C6.97816 17.4869 6.97848 17.4869 6.9788 17.4869C6.97911 17.4869 6.97942 17.4869 6.97973 17.4869C6.98004 17.4869 6.98034 17.4869 6.98064 17.4869C6.98094 17.4869 6.98124 17.4869 6.98153 17.4869C6.98183 17.4869 6.98212 17.4869 6.9824 17.4869C6.98269 17.4869 6.98298 17.4869 6.98326 17.4869C6.98354 17.4869 6.98381 17.4869 6.98409 17.4869C6.98436 17.4869 6.98463 17.4869 6.9849 17.4869C6.98517 17.4869 6.98543 17.4869 6.98569 17.4869C6.98595 17.4869 6.98621 17.4869 6.98646 17.4869C6.98671 17.4869 6.98696 17.4869 6.98721 17.4869C6.98746 17.4869 6.9877 17.4869 6.98794 17.4869C6.98818 17.4869 6.98841 17.4869 6.98865 17.4869C6.98888 17.4869 6.98911 17.4869 6.98934 17.4869C6.98956 17.4869 6.98978 17.4869 6.99 17.4869C6.99022 17.4869 6.99044 17.4869 6.99065 17.4869C6.99086 17.4869 6.99107 17.4869 6.99127 17.4869C6.99148 17.4869 6.99168 17.4869 6.99188 17.4869C6.99208 17.4869 6.99227 17.4869 6.99246 17.4869C6.99265 17.4869 6.99284 17.4869 6.99302 17.4869C6.99321 17.4869 6.99339 17.4869 6.99356 17.4869C6.99374 17.4869 6.99391 17.4869 6.99408 17.4869C6.99425 17.4869 6.99442 17.4869 6.99458 17.4869C6.99474 17.4869 6.9949 17.4869 6.99506 17.4869C6.99521 17.4869 6.99536 17.4869 6.99551 17.4869C6.99566 17.4869 6.9958 17.4869 6.99595 17.4869C6.99609 17.4869 6.99622 17.4869 6.99636 17.4869C6.99649 17.4869 6.99662 17.4869 6.99675 17.4869C6.99687 17.4869 6.997 17.4869 6.99712 17.4869C6.99724 17.4869 6.99735 17.4869 6.99746 17.4869C6.99757 17.4869 6.99768 17.4869 6.99779 17.4869C6.99789 17.4869 6.99799 17.4869 6.99809 17.4869C6.99819 17.4869 6.99828 17.4869 6.99837 17.4869C6.99846 17.4869 6.99855 17.4869 6.99863 17.4869C6.99871 17.4869 6.99879 17.4869 6.99887 17.4869C6.99894 17.4869 6.99901 17.4869 6.99908 17.4869C6.99915 17.4869 6.99921 17.4869 6.99927 17.4869C6.99933 17.4869 6.99939 17.4869 6.99944 17.4869C6.9995 17.4869 6.99955 17.4869 6.99959 17.4869C6.99964 17.4869 6.99968 17.4869 6.99972 17.4869C6.99975 17.4869 6.99979 17.4869 6.99982 17.4869C6.99985 17.4869 6.99987 17.4869 6.9999 17.4869C6.99992 17.4869 6.99994 17.4869 6.99995 17.4869C6.99997 17.4869 6.99998 17.4869 6.99999 17.4869C7 17.4869 7 17.4869 7 18.9869ZM5.5 20.4869C5.20011 20.4869 4.60643 20.5064 4.20397 20.4971C3.7466 20.4865 3.1718 20.4433 2.61346 20.2453C2.01388 20.0326 1.42925 19.639 1.02428 18.9676C0.639939 18.3304 0.5 17.5789 0.5 16.7849H3.5C3.5 17.2518 3.58587 17.406 3.59316 17.4181C3.59458 17.4205 3.58785 17.4104 3.57587 17.4012C3.56676 17.3942 3.57414 17.4029 3.61638 17.4179C3.72135 17.4551 3.9157 17.4896 4.27335 17.4979C4.6859 17.5074 4.95312 17.4869 5.5 17.4869V20.4869Z" fill="black"/>
<path d="M12.5 2.5L19.5711 9.57107" stroke="black" stroke-width="3" stroke-linecap="round"/>
<path d="M19.5711 2.5L12.5 9.57107" stroke="black" stroke-width="3" stroke-linecap="round"/>
<path d="M39 4.5L35 8.5" stroke="black" stroke-width="2.5" stroke-linecap="round"/>
<path d="M39 4.5L43 8.5" stroke="black" stroke-width="2.5" stroke-linecap="round"/>
</svg>
