<svg width="20" height="20" viewBox="0 0 20 20" fill="none" xmlns="http://www.w3.org/2000/svg">
<path fill-rule="evenodd" clip-rule="evenodd" d="M10.7248 2.5C11.3749 2.5 11.9165 2.99833 11.9705 3.64619L12.0628 4.75196C12.5924 4.95679 13.0832 5.23947 13.5212 5.58595L14.5173 5.11658C15.1054 4.8394 15.8077 5.05926 16.1328 5.62228L16.8576 6.87772C17.1827 7.44074 17.0219 8.15893 16.4878 8.52961L15.5952 9.14947C15.6373 9.42685 15.6591 9.71088 15.6591 10C15.6591 10.2891 15.6373 10.5732 15.5952 10.8505L16.4878 11.4704C17.0219 11.8411 17.1827 12.5593 16.8576 13.1223L16.1328 14.3777C15.8077 14.9407 15.1054 15.1606 14.5173 14.8834L13.5212 14.4141C13.0833 14.7604 12.5928 15.043 12.0635 15.2478L11.9705 16.3538C11.9165 17.0017 11.3749 17.5 10.7248 17.5H9.27516C8.62505 17.5 8.08347 17.0017 8.02948 16.3538L7.93476 15.2202C7.42218 15.0138 6.94698 14.7342 6.52216 14.3942L5.48269 14.8834C4.89463 15.1606 4.19228 14.9407 3.86722 14.3777L3.14239 13.1223C2.81733 12.5593 2.9781 11.8411 3.51218 11.4704L4.46663 10.8073C4.42874 10.5437 4.40913 10.2741 4.40913 10C4.40913 9.72565 4.42877 9.45588 4.46672 9.19203L3.51218 8.52961C2.9781 8.15893 2.81733 7.44074 3.14239 6.87772L3.86722 5.62228C4.19228 5.05926 4.89463 4.8394 5.48269 5.11658L6.52216 5.6058C6.94698 5.26582 7.42218 4.98618 7.93476 4.77984L8.02948 3.64619C8.08347 2.99833 8.62505 2.5 9.27516 2.5H10.7248Z" stroke="black" stroke-width="1.25"/>
<circle cx="10.0341" cy="10" r="2.5" stroke="black" stroke-width="1.25"/>
</svg>
